<?xml version="1.0" encoding="utf-8" standalone="no"?>
<!DOCTYPE svg PUBLIC "-//W3C//DTD SVG 1.1//EN"
  "http://www.w3.org/Graphics/SVG/1.1/DTD/svg11.dtd">
<svg xmlns:xlink="http://www.w3.org/1999/xlink" width="864pt" height="360pt" viewBox="0 0 864 360" xmlns="http://www.w3.org/2000/svg" version="1.1">
 <metadata>
  <rdf:RDF xmlns:dc="http://purl.org/dc/elements/1.1/" xmlns:cc="http://creativecommons.org/ns#" xmlns:rdf="http://www.w3.org/1999/02/22-rdf-syntax-ns#">
   <cc:Work>
    <dc:type rdf:resource="http://purl.org/dc/dcmitype/StillImage"/>
    <dc:date>2025-02-27T18:23:15.031712</dc:date>
    <dc:format>image/svg+xml</dc:format>
    <dc:creator>
     <cc:Agent>
      <dc:title>Matplotlib v3.10.0, https://matplotlib.org/</dc:title>
     </cc:Agent>
    </dc:creator>
   </cc:Work>
  </rdf:RDF>
 </metadata>
 <defs>
  <style type="text/css">*{stroke-linejoin: round; stroke-linecap: butt}</style>
 </defs>
 <g id="figure_1">
  <g id="patch_1">
   <path d="M 0 360 
L 864 360 
L 864 0 
L 0 0 
z
" style="fill: #ffffff"/>
  </g>
  <g id="axes_1">
   <g id="patch_2">
    <path d="M 108 320.4 
L 412.363636 320.4 
L 412.363636 43.2 
L 108 43.2 
z
" style="fill: #ffffff"/>
   </g>
   <g id="matplotlib.axis_1">
    <g id="xtick_1">
     <g id="line2d_1">
      <path d="M 121.834711 320.4 
L 121.834711 43.2 
" clip-path="url(#p4cbf788b9c)" style="fill: none; stroke: #cccccc; stroke-linecap: round"/>
     </g>
     <g id="text_1">
      <!-- 0 -->
      <g style="fill: #262626" transform="translate(118.335336 338.258281) scale(0.11 -0.11)">
       <defs>
        <path id="DejaVuSans-30" d="M 2034 4250 
Q 1547 4250 1301 3770 
Q 1056 3291 1056 2328 
Q 1056 1369 1301 889 
Q 1547 409 2034 409 
Q 2525 409 2770 889 
Q 3016 1369 3016 2328 
Q 3016 3291 2770 3770 
Q 2525 4250 2034 4250 
z
M 2034 4750 
Q 2819 4750 3233 4129 
Q 3647 3509 3647 2328 
Q 3647 1150 3233 529 
Q 2819 -91 2034 -91 
Q 1250 -91 836 529 
Q 422 1150 422 2328 
Q 422 3509 836 4129 
Q 1250 4750 2034 4750 
z
" transform="scale(0.015625)"/>
       </defs>
       <use xlink:href="#DejaVuSans-30"/>
      </g>
     </g>
    </g>
    <g id="xtick_2">
     <g id="line2d_2">
      <path d="M 172.002331 320.4 
L 172.002331 43.2 
" clip-path="url(#p4cbf788b9c)" style="fill: none; stroke: #cccccc; stroke-linecap: round"/>
     </g>
     <g id="text_2">
      <!-- 200 -->
      <g style="fill: #262626" transform="translate(161.504206 338.258281) scale(0.11 -0.11)">
       <defs>
        <path id="DejaVuSans-32" d="M 1228 531 
L 3431 531 
L 3431 0 
L 469 0 
L 469 531 
Q 828 903 1448 1529 
Q 2069 2156 2228 2338 
Q 2531 2678 2651 2914 
Q 2772 3150 2772 3378 
Q 2772 3750 2511 3984 
Q 2250 4219 1831 4219 
Q 1534 4219 1204 4116 
Q 875 4013 500 3803 
L 500 4441 
Q 881 4594 1212 4672 
Q 1544 4750 1819 4750 
Q 2544 4750 2975 4387 
Q 3406 4025 3406 3419 
Q 3406 3131 3298 2873 
Q 3191 2616 2906 2266 
Q 2828 2175 2409 1742 
Q 1991 1309 1228 531 
z
" transform="scale(0.015625)"/>
       </defs>
       <use xlink:href="#DejaVuSans-32"/>
       <use xlink:href="#DejaVuSans-30" transform="translate(63.623047 0)"/>
       <use xlink:href="#DejaVuSans-30" transform="translate(127.246094 0)"/>
      </g>
     </g>
    </g>
    <g id="xtick_3">
     <g id="line2d_3">
      <path d="M 222.169952 320.4 
L 222.169952 43.2 
" clip-path="url(#p4cbf788b9c)" style="fill: none; stroke: #cccccc; stroke-linecap: round"/>
     </g>
     <g id="text_3">
      <!-- 400 -->
      <g style="fill: #262626" transform="translate(211.671827 338.258281) scale(0.11 -0.11)">
       <defs>
        <path id="DejaVuSans-34" d="M 2419 4116 
L 825 1625 
L 2419 1625 
L 2419 4116 
z
M 2253 4666 
L 3047 4666 
L 3047 1625 
L 3713 1625 
L 3713 1100 
L 3047 1100 
L 3047 0 
L 2419 0 
L 2419 1100 
L 313 1100 
L 313 1709 
L 2253 4666 
z
" transform="scale(0.015625)"/>
       </defs>
       <use xlink:href="#DejaVuSans-34"/>
       <use xlink:href="#DejaVuSans-30" transform="translate(63.623047 0)"/>
       <use xlink:href="#DejaVuSans-30" transform="translate(127.246094 0)"/>
      </g>
     </g>
    </g>
    <g id="xtick_4">
     <g id="line2d_4">
      <path d="M 272.337572 320.4 
L 272.337572 43.2 
" clip-path="url(#p4cbf788b9c)" style="fill: none; stroke: #cccccc; stroke-linecap: round"/>
     </g>
     <g id="text_4">
      <!-- 600 -->
      <g style="fill: #262626" transform="translate(261.839447 338.258281) scale(0.11 -0.11)">
       <defs>
        <path id="DejaVuSans-36" d="M 2113 2584 
Q 1688 2584 1439 2293 
Q 1191 2003 1191 1497 
Q 1191 994 1439 701 
Q 1688 409 2113 409 
Q 2538 409 2786 701 
Q 3034 994 3034 1497 
Q 3034 2003 2786 2293 
Q 2538 2584 2113 2584 
z
M 3366 4563 
L 3366 3988 
Q 3128 4100 2886 4159 
Q 2644 4219 2406 4219 
Q 1781 4219 1451 3797 
Q 1122 3375 1075 2522 
Q 1259 2794 1537 2939 
Q 1816 3084 2150 3084 
Q 2853 3084 3261 2657 
Q 3669 2231 3669 1497 
Q 3669 778 3244 343 
Q 2819 -91 2113 -91 
Q 1303 -91 875 529 
Q 447 1150 447 2328 
Q 447 3434 972 4092 
Q 1497 4750 2381 4750 
Q 2619 4750 2861 4703 
Q 3103 4656 3366 4563 
z
" transform="scale(0.015625)"/>
       </defs>
       <use xlink:href="#DejaVuSans-36"/>
       <use xlink:href="#DejaVuSans-30" transform="translate(63.623047 0)"/>
       <use xlink:href="#DejaVuSans-30" transform="translate(127.246094 0)"/>
      </g>
     </g>
    </g>
    <g id="xtick_5">
     <g id="line2d_5">
      <path d="M 322.505193 320.4 
L 322.505193 43.2 
" clip-path="url(#p4cbf788b9c)" style="fill: none; stroke: #cccccc; stroke-linecap: round"/>
     </g>
     <g id="text_5">
      <!-- 800 -->
      <g style="fill: #262626" transform="translate(312.007068 338.258281) scale(0.11 -0.11)">
       <defs>
        <path id="DejaVuSans-38" d="M 2034 2216 
Q 1584 2216 1326 1975 
Q 1069 1734 1069 1313 
Q 1069 891 1326 650 
Q 1584 409 2034 409 
Q 2484 409 2743 651 
Q 3003 894 3003 1313 
Q 3003 1734 2745 1975 
Q 2488 2216 2034 2216 
z
M 1403 2484 
Q 997 2584 770 2862 
Q 544 3141 544 3541 
Q 544 4100 942 4425 
Q 1341 4750 2034 4750 
Q 2731 4750 3128 4425 
Q 3525 4100 3525 3541 
Q 3525 3141 3298 2862 
Q 3072 2584 2669 2484 
Q 3125 2378 3379 2068 
Q 3634 1759 3634 1313 
Q 3634 634 3220 271 
Q 2806 -91 2034 -91 
Q 1263 -91 848 271 
Q 434 634 434 1313 
Q 434 1759 690 2068 
Q 947 2378 1403 2484 
z
M 1172 3481 
Q 1172 3119 1398 2916 
Q 1625 2713 2034 2713 
Q 2441 2713 2670 2916 
Q 2900 3119 2900 3481 
Q 2900 3844 2670 4047 
Q 2441 4250 2034 4250 
Q 1625 4250 1398 4047 
Q 1172 3844 1172 3481 
z
" transform="scale(0.015625)"/>
       </defs>
       <use xlink:href="#DejaVuSans-38"/>
       <use xlink:href="#DejaVuSans-30" transform="translate(63.623047 0)"/>
       <use xlink:href="#DejaVuSans-30" transform="translate(127.246094 0)"/>
      </g>
     </g>
    </g>
    <g id="xtick_6">
     <g id="line2d_6">
      <path d="M 372.672813 320.4 
L 372.672813 43.2 
" clip-path="url(#p4cbf788b9c)" style="fill: none; stroke: #cccccc; stroke-linecap: round"/>
     </g>
     <g id="text_6">
      <!-- 1000 -->
      <g style="fill: #262626" transform="translate(358.675313 338.258281) scale(0.11 -0.11)">
       <defs>
        <path id="DejaVuSans-31" d="M 794 531 
L 1825 531 
L 1825 4091 
L 703 3866 
L 703 4441 
L 1819 4666 
L 2450 4666 
L 2450 531 
L 3481 531 
L 3481 0 
L 794 0 
L 794 531 
z
" transform="scale(0.015625)"/>
       </defs>
       <use xlink:href="#DejaVuSans-31"/>
       <use xlink:href="#DejaVuSans-30" transform="translate(63.623047 0)"/>
       <use xlink:href="#DejaVuSans-30" transform="translate(127.246094 0)"/>
       <use xlink:href="#DejaVuSans-30" transform="translate(190.869141 0)"/>
      </g>
     </g>
    </g>
    <g id="text_7">
     <!-- Power scalar -->
     <g style="fill: #262626" transform="translate(222.226193 353.664062) scale(0.12 -0.12)">
      <defs>
       <path id="DejaVuSans-50" d="M 1259 4147 
L 1259 2394 
L 2053 2394 
Q 2494 2394 2734 2622 
Q 2975 2850 2975 3272 
Q 2975 3691 2734 3919 
Q 2494 4147 2053 4147 
L 1259 4147 
z
M 628 4666 
L 2053 4666 
Q 2838 4666 3239 4311 
Q 3641 3956 3641 3272 
Q 3641 2581 3239 2228 
Q 2838 1875 2053 1875 
L 1259 1875 
L 1259 0 
L 628 0 
L 628 4666 
z
" transform="scale(0.015625)"/>
       <path id="DejaVuSans-6f" d="M 1959 3097 
Q 1497 3097 1228 2736 
Q 959 2375 959 1747 
Q 959 1119 1226 758 
Q 1494 397 1959 397 
Q 2419 397 2687 759 
Q 2956 1122 2956 1747 
Q 2956 2369 2687 2733 
Q 2419 3097 1959 3097 
z
M 1959 3584 
Q 2709 3584 3137 3096 
Q 3566 2609 3566 1747 
Q 3566 888 3137 398 
Q 2709 -91 1959 -91 
Q 1206 -91 779 398 
Q 353 888 353 1747 
Q 353 2609 779 3096 
Q 1206 3584 1959 3584 
z
" transform="scale(0.015625)"/>
       <path id="DejaVuSans-77" d="M 269 3500 
L 844 3500 
L 1563 769 
L 2278 3500 
L 2956 3500 
L 3675 769 
L 4391 3500 
L 4966 3500 
L 4050 0 
L 3372 0 
L 2619 2869 
L 1863 0 
L 1184 0 
L 269 3500 
z
" transform="scale(0.015625)"/>
       <path id="DejaVuSans-65" d="M 3597 1894 
L 3597 1613 
L 953 1613 
Q 991 1019 1311 708 
Q 1631 397 2203 397 
Q 2534 397 2845 478 
Q 3156 559 3463 722 
L 3463 178 
Q 3153 47 2828 -22 
Q 2503 -91 2169 -91 
Q 1331 -91 842 396 
Q 353 884 353 1716 
Q 353 2575 817 3079 
Q 1281 3584 2069 3584 
Q 2775 3584 3186 3129 
Q 3597 2675 3597 1894 
z
M 3022 2063 
Q 3016 2534 2758 2815 
Q 2500 3097 2075 3097 
Q 1594 3097 1305 2825 
Q 1016 2553 972 2059 
L 3022 2063 
z
" transform="scale(0.015625)"/>
       <path id="DejaVuSans-72" d="M 2631 2963 
Q 2534 3019 2420 3045 
Q 2306 3072 2169 3072 
Q 1681 3072 1420 2755 
Q 1159 2438 1159 1844 
L 1159 0 
L 581 0 
L 581 3500 
L 1159 3500 
L 1159 2956 
Q 1341 3275 1631 3429 
Q 1922 3584 2338 3584 
Q 2397 3584 2469 3576 
Q 2541 3569 2628 3553 
L 2631 2963 
z
" transform="scale(0.015625)"/>
       <path id="DejaVuSans-20" transform="scale(0.015625)"/>
       <path id="DejaVuSans-73" d="M 2834 3397 
L 2834 2853 
Q 2591 2978 2328 3040 
Q 2066 3103 1784 3103 
Q 1356 3103 1142 2972 
Q 928 2841 928 2578 
Q 928 2378 1081 2264 
Q 1234 2150 1697 2047 
L 1894 2003 
Q 2506 1872 2764 1633 
Q 3022 1394 3022 966 
Q 3022 478 2636 193 
Q 2250 -91 1575 -91 
Q 1294 -91 989 -36 
Q 684 19 347 128 
L 347 722 
Q 666 556 975 473 
Q 1284 391 1588 391 
Q 1994 391 2212 530 
Q 2431 669 2431 922 
Q 2431 1156 2273 1281 
Q 2116 1406 1581 1522 
L 1381 1569 
Q 847 1681 609 1914 
Q 372 2147 372 2553 
Q 372 3047 722 3315 
Q 1072 3584 1716 3584 
Q 2034 3584 2315 3537 
Q 2597 3491 2834 3397 
z
" transform="scale(0.015625)"/>
       <path id="DejaVuSans-63" d="M 3122 3366 
L 3122 2828 
Q 2878 2963 2633 3030 
Q 2388 3097 2138 3097 
Q 1578 3097 1268 2742 
Q 959 2388 959 1747 
Q 959 1106 1268 751 
Q 1578 397 2138 397 
Q 2388 397 2633 464 
Q 2878 531 3122 666 
L 3122 134 
Q 2881 22 2623 -34 
Q 2366 -91 2075 -91 
Q 1284 -91 818 406 
Q 353 903 353 1747 
Q 353 2603 823 3093 
Q 1294 3584 2113 3584 
Q 2378 3584 2631 3529 
Q 2884 3475 3122 3366 
z
" transform="scale(0.015625)"/>
       <path id="DejaVuSans-61" d="M 2194 1759 
Q 1497 1759 1228 1600 
Q 959 1441 959 1056 
Q 959 750 1161 570 
Q 1363 391 1709 391 
Q 2188 391 2477 730 
Q 2766 1069 2766 1631 
L 2766 1759 
L 2194 1759 
z
M 3341 1997 
L 3341 0 
L 2766 0 
L 2766 531 
Q 2569 213 2275 61 
Q 1981 -91 1556 -91 
Q 1019 -91 701 211 
Q 384 513 384 1019 
Q 384 1609 779 1909 
Q 1175 2209 1959 2209 
L 2766 2209 
L 2766 2266 
Q 2766 2663 2505 2880 
Q 2244 3097 1772 3097 
Q 1472 3097 1187 3025 
Q 903 2953 641 2809 
L 641 3341 
Q 956 3463 1253 3523 
Q 1550 3584 1831 3584 
Q 2591 3584 2966 3190 
Q 3341 2797 3341 1997 
z
" transform="scale(0.015625)"/>
       <path id="DejaVuSans-6c" d="M 603 4863 
L 1178 4863 
L 1178 0 
L 603 0 
L 603 4863 
z
" transform="scale(0.015625)"/>
      </defs>
      <use xlink:href="#DejaVuSans-50"/>
      <use xlink:href="#DejaVuSans-6f" transform="translate(56.677734 0)"/>
      <use xlink:href="#DejaVuSans-77" transform="translate(117.859375 0)"/>
      <use xlink:href="#DejaVuSans-65" transform="translate(199.646484 0)"/>
      <use xlink:href="#DejaVuSans-72" transform="translate(261.169922 0)"/>
      <use xlink:href="#DejaVuSans-20" transform="translate(302.283203 0)"/>
      <use xlink:href="#DejaVuSans-73" transform="translate(334.070312 0)"/>
      <use xlink:href="#DejaVuSans-63" transform="translate(386.169922 0)"/>
      <use xlink:href="#DejaVuSans-61" transform="translate(441.150391 0)"/>
      <use xlink:href="#DejaVuSans-6c" transform="translate(502.429688 0)"/>
      <use xlink:href="#DejaVuSans-61" transform="translate(530.212891 0)"/>
      <use xlink:href="#DejaVuSans-72" transform="translate(591.492188 0)"/>
     </g>
    </g>
   </g>
   <g id="matplotlib.axis_2">
    <g id="ytick_1">
     <g id="line2d_7">
      <path d="M 108 320.4 
L 412.363636 320.4 
" clip-path="url(#p4cbf788b9c)" style="fill: none; stroke: #cccccc; stroke-linecap: round"/>
     </g>
     <g id="text_8">
      <!-- 0 -->
      <g style="fill: #262626" transform="translate(91.50125 324.579141) scale(0.11 -0.11)">
       <use xlink:href="#DejaVuSans-30"/>
      </g>
     </g>
    </g>
    <g id="ytick_2">
     <g id="line2d_8">
      <path d="M 108 266.522449 
L 412.363636 266.522449 
" clip-path="url(#p4cbf788b9c)" style="fill: none; stroke: #cccccc; stroke-linecap: round"/>
     </g>
     <g id="text_9">
      <!-- 100 -->
      <g style="fill: #262626" transform="translate(77.50375 270.70159) scale(0.11 -0.11)">
       <use xlink:href="#DejaVuSans-31"/>
       <use xlink:href="#DejaVuSans-30" transform="translate(63.623047 0)"/>
       <use xlink:href="#DejaVuSans-30" transform="translate(127.246094 0)"/>
      </g>
     </g>
    </g>
    <g id="ytick_3">
     <g id="line2d_9">
      <path d="M 108 212.644898 
L 412.363636 212.644898 
" clip-path="url(#p4cbf788b9c)" style="fill: none; stroke: #cccccc; stroke-linecap: round"/>
     </g>
     <g id="text_10">
      <!-- 200 -->
      <g style="fill: #262626" transform="translate(77.50375 216.824039) scale(0.11 -0.11)">
       <use xlink:href="#DejaVuSans-32"/>
       <use xlink:href="#DejaVuSans-30" transform="translate(63.623047 0)"/>
       <use xlink:href="#DejaVuSans-30" transform="translate(127.246094 0)"/>
      </g>
     </g>
    </g>
    <g id="ytick_4">
     <g id="line2d_10">
      <path d="M 108 158.767347 
L 412.363636 158.767347 
" clip-path="url(#p4cbf788b9c)" style="fill: none; stroke: #cccccc; stroke-linecap: round"/>
     </g>
     <g id="text_11">
      <!-- 300 -->
      <g style="fill: #262626" transform="translate(77.50375 162.946488) scale(0.11 -0.11)">
       <defs>
        <path id="DejaVuSans-33" d="M 2597 2516 
Q 3050 2419 3304 2112 
Q 3559 1806 3559 1356 
Q 3559 666 3084 287 
Q 2609 -91 1734 -91 
Q 1441 -91 1130 -33 
Q 819 25 488 141 
L 488 750 
Q 750 597 1062 519 
Q 1375 441 1716 441 
Q 2309 441 2620 675 
Q 2931 909 2931 1356 
Q 2931 1769 2642 2001 
Q 2353 2234 1838 2234 
L 1294 2234 
L 1294 2753 
L 1863 2753 
Q 2328 2753 2575 2939 
Q 2822 3125 2822 3475 
Q 2822 3834 2567 4026 
Q 2313 4219 1838 4219 
Q 1578 4219 1281 4162 
Q 984 4106 628 3988 
L 628 4550 
Q 988 4650 1302 4700 
Q 1616 4750 1894 4750 
Q 2613 4750 3031 4423 
Q 3450 4097 3450 3541 
Q 3450 3153 3228 2886 
Q 3006 2619 2597 2516 
z
" transform="scale(0.015625)"/>
       </defs>
       <use xlink:href="#DejaVuSans-33"/>
       <use xlink:href="#DejaVuSans-30" transform="translate(63.623047 0)"/>
       <use xlink:href="#DejaVuSans-30" transform="translate(127.246094 0)"/>
      </g>
     </g>
    </g>
    <g id="ytick_5">
     <g id="line2d_11">
      <path d="M 108 104.889796 
L 412.363636 104.889796 
" clip-path="url(#p4cbf788b9c)" style="fill: none; stroke: #cccccc; stroke-linecap: round"/>
     </g>
     <g id="text_12">
      <!-- 400 -->
      <g style="fill: #262626" transform="translate(77.50375 109.068937) scale(0.11 -0.11)">
       <use xlink:href="#DejaVuSans-34"/>
       <use xlink:href="#DejaVuSans-30" transform="translate(63.623047 0)"/>
       <use xlink:href="#DejaVuSans-30" transform="translate(127.246094 0)"/>
      </g>
     </g>
    </g>
    <g id="ytick_6">
     <g id="line2d_12">
      <path d="M 108 51.012245 
L 412.363636 51.012245 
" clip-path="url(#p4cbf788b9c)" style="fill: none; stroke: #cccccc; stroke-linecap: round"/>
     </g>
     <g id="text_13">
      <!-- 500 -->
      <g style="fill: #262626" transform="translate(77.50375 55.191386) scale(0.11 -0.11)">
       <defs>
        <path id="DejaVuSans-35" d="M 691 4666 
L 3169 4666 
L 3169 4134 
L 1269 4134 
L 1269 2991 
Q 1406 3038 1543 3061 
Q 1681 3084 1819 3084 
Q 2600 3084 3056 2656 
Q 3513 2228 3513 1497 
Q 3513 744 3044 326 
Q 2575 -91 1722 -91 
Q 1428 -91 1123 -41 
Q 819 9 494 109 
L 494 744 
Q 775 591 1075 516 
Q 1375 441 1709 441 
Q 2250 441 2565 725 
Q 2881 1009 2881 1497 
Q 2881 1984 2565 2268 
Q 2250 2553 1709 2553 
Q 1456 2553 1204 2497 
Q 953 2441 691 2322 
L 691 4666 
z
" transform="scale(0.015625)"/>
       </defs>
       <use xlink:href="#DejaVuSans-35"/>
       <use xlink:href="#DejaVuSans-30" transform="translate(63.623047 0)"/>
       <use xlink:href="#DejaVuSans-30" transform="translate(127.246094 0)"/>
      </g>
     </g>
    </g>
    <g id="text_14">
     <!-- Frequency -->
     <g style="fill: #262626" transform="translate(71.008125 212.795625) rotate(-90) scale(0.12 -0.12)">
      <defs>
       <path id="DejaVuSans-46" d="M 628 4666 
L 3309 4666 
L 3309 4134 
L 1259 4134 
L 1259 2759 
L 3109 2759 
L 3109 2228 
L 1259 2228 
L 1259 0 
L 628 0 
L 628 4666 
z
" transform="scale(0.015625)"/>
       <path id="DejaVuSans-71" d="M 947 1747 
Q 947 1113 1208 752 
Q 1469 391 1925 391 
Q 2381 391 2643 752 
Q 2906 1113 2906 1747 
Q 2906 2381 2643 2742 
Q 2381 3103 1925 3103 
Q 1469 3103 1208 2742 
Q 947 2381 947 1747 
z
M 2906 525 
Q 2725 213 2448 61 
Q 2172 -91 1784 -91 
Q 1150 -91 751 415 
Q 353 922 353 1747 
Q 353 2572 751 3078 
Q 1150 3584 1784 3584 
Q 2172 3584 2448 3432 
Q 2725 3281 2906 2969 
L 2906 3500 
L 3481 3500 
L 3481 -1331 
L 2906 -1331 
L 2906 525 
z
" transform="scale(0.015625)"/>
       <path id="DejaVuSans-75" d="M 544 1381 
L 544 3500 
L 1119 3500 
L 1119 1403 
Q 1119 906 1312 657 
Q 1506 409 1894 409 
Q 2359 409 2629 706 
Q 2900 1003 2900 1516 
L 2900 3500 
L 3475 3500 
L 3475 0 
L 2900 0 
L 2900 538 
Q 2691 219 2414 64 
Q 2138 -91 1772 -91 
Q 1169 -91 856 284 
Q 544 659 544 1381 
z
M 1991 3584 
L 1991 3584 
z
" transform="scale(0.015625)"/>
       <path id="DejaVuSans-6e" d="M 3513 2113 
L 3513 0 
L 2938 0 
L 2938 2094 
Q 2938 2591 2744 2837 
Q 2550 3084 2163 3084 
Q 1697 3084 1428 2787 
Q 1159 2491 1159 1978 
L 1159 0 
L 581 0 
L 581 3500 
L 1159 3500 
L 1159 2956 
Q 1366 3272 1645 3428 
Q 1925 3584 2291 3584 
Q 2894 3584 3203 3211 
Q 3513 2838 3513 2113 
z
" transform="scale(0.015625)"/>
       <path id="DejaVuSans-79" d="M 2059 -325 
Q 1816 -950 1584 -1140 
Q 1353 -1331 966 -1331 
L 506 -1331 
L 506 -850 
L 844 -850 
Q 1081 -850 1212 -737 
Q 1344 -625 1503 -206 
L 1606 56 
L 191 3500 
L 800 3500 
L 1894 763 
L 2988 3500 
L 3597 3500 
L 2059 -325 
z
" transform="scale(0.015625)"/>
      </defs>
      <use xlink:href="#DejaVuSans-46"/>
      <use xlink:href="#DejaVuSans-72" transform="translate(50.269531 0)"/>
      <use xlink:href="#DejaVuSans-65" transform="translate(89.132812 0)"/>
      <use xlink:href="#DejaVuSans-71" transform="translate(150.65625 0)"/>
      <use xlink:href="#DejaVuSans-75" transform="translate(214.132812 0)"/>
      <use xlink:href="#DejaVuSans-65" transform="translate(277.511719 0)"/>
      <use xlink:href="#DejaVuSans-6e" transform="translate(339.035156 0)"/>
      <use xlink:href="#DejaVuSans-63" transform="translate(402.414062 0)"/>
      <use xlink:href="#DejaVuSans-79" transform="translate(457.394531 0)"/>
     </g>
    </g>
   </g>
   <g id="patch_3">
    <path d="M 121.834711 320.4 
L 127.368595 320.4 
L 127.368595 187.861224 
L 121.834711 187.861224 
z
" clip-path="url(#p4cbf788b9c)" style="fill: #4c72b0; stroke: #ffffff; stroke-linejoin: miter"/>
   </g>
   <g id="patch_4">
    <path d="M 127.368595 320.4 
L 132.902479 320.4 
L 132.902479 136.677551 
L 127.368595 136.677551 
z
" clip-path="url(#p4cbf788b9c)" style="fill: #4c72b0; stroke: #ffffff; stroke-linejoin: miter"/>
   </g>
   <g id="patch_5">
    <path d="M 132.902479 320.4 
L 138.436364 320.4 
L 138.436364 211.028571 
L 132.902479 211.028571 
z
" clip-path="url(#p4cbf788b9c)" style="fill: #4c72b0; stroke: #ffffff; stroke-linejoin: miter"/>
   </g>
   <g id="patch_6">
    <path d="M 138.436364 320.4 
L 143.970248 320.4 
L 143.970248 121.053061 
L 138.436364 121.053061 
z
" clip-path="url(#p4cbf788b9c)" style="fill: #4c72b0; stroke: #ffffff; stroke-linejoin: miter"/>
   </g>
   <g id="patch_7">
    <path d="M 143.970248 320.4 
L 149.504132 320.4 
L 149.504132 171.697959 
L 143.970248 171.697959 
z
" clip-path="url(#p4cbf788b9c)" style="fill: #4c72b0; stroke: #ffffff; stroke-linejoin: miter"/>
   </g>
   <g id="patch_8">
    <path d="M 149.504132 320.4 
L 155.038017 320.4 
L 155.038017 252.514286 
L 149.504132 252.514286 
z
" clip-path="url(#p4cbf788b9c)" style="fill: #4c72b0; stroke: #ffffff; stroke-linejoin: miter"/>
   </g>
   <g id="patch_9">
    <path d="M 155.038017 320.4 
L 160.571901 320.4 
L 160.571901 275.681633 
L 155.038017 275.681633 
z
" clip-path="url(#p4cbf788b9c)" style="fill: #4c72b0; stroke: #ffffff; stroke-linejoin: miter"/>
   </g>
   <g id="patch_10">
    <path d="M 160.571901 320.4 
L 166.105785 320.4 
L 166.105785 285.918367 
L 160.571901 285.918367 
z
" clip-path="url(#p4cbf788b9c)" style="fill: #4c72b0; stroke: #ffffff; stroke-linejoin: miter"/>
   </g>
   <g id="patch_11">
    <path d="M 166.105785 320.4 
L 171.639669 320.4 
L 171.639669 273.526531 
L 166.105785 273.526531 
z
" clip-path="url(#p4cbf788b9c)" style="fill: #4c72b0; stroke: #ffffff; stroke-linejoin: miter"/>
   </g>
   <g id="patch_12">
    <path d="M 171.639669 320.4 
L 177.173554 320.4 
L 177.173554 56.4 
L 171.639669 56.4 
z
" clip-path="url(#p4cbf788b9c)" style="fill: #4c72b0; stroke: #ffffff; stroke-linejoin: miter"/>
   </g>
   <g id="patch_13">
    <path d="M 177.173554 320.4 
L 182.707438 320.4 
L 182.707438 108.661224 
L 177.173554 108.661224 
z
" clip-path="url(#p4cbf788b9c)" style="fill: #4c72b0; stroke: #ffffff; stroke-linejoin: miter"/>
   </g>
   <g id="patch_14">
    <path d="M 182.707438 320.4 
L 188.241322 320.4 
L 188.241322 173.853061 
L 182.707438 173.853061 
z
" clip-path="url(#p4cbf788b9c)" style="fill: #4c72b0; stroke: #ffffff; stroke-linejoin: miter"/>
   </g>
   <g id="patch_15">
    <path d="M 188.241322 320.4 
L 193.775207 320.4 
L 193.775207 212.644898 
L 188.241322 212.644898 
z
" clip-path="url(#p4cbf788b9c)" style="fill: #4c72b0; stroke: #ffffff; stroke-linejoin: miter"/>
   </g>
   <g id="patch_16">
    <path d="M 193.775207 320.4 
L 199.309091 320.4 
L 199.309091 252.514286 
L 193.775207 252.514286 
z
" clip-path="url(#p4cbf788b9c)" style="fill: #4c72b0; stroke: #ffffff; stroke-linejoin: miter"/>
   </g>
   <g id="patch_17">
    <path d="M 199.309091 320.4 
L 204.842975 320.4 
L 204.842975 261.673469 
L 199.309091 261.673469 
z
" clip-path="url(#p4cbf788b9c)" style="fill: #4c72b0; stroke: #ffffff; stroke-linejoin: miter"/>
   </g>
   <g id="patch_18">
    <path d="M 204.842975 320.4 
L 210.37686 320.4 
L 210.37686 258.979592 
L 204.842975 258.979592 
z
" clip-path="url(#p4cbf788b9c)" style="fill: #4c72b0; stroke: #ffffff; stroke-linejoin: miter"/>
   </g>
   <g id="patch_19">
    <path d="M 210.37686 320.4 
L 215.910744 320.4 
L 215.910744 283.763265 
L 210.37686 283.763265 
z
" clip-path="url(#p4cbf788b9c)" style="fill: #4c72b0; stroke: #ffffff; stroke-linejoin: miter"/>
   </g>
   <g id="patch_20">
    <path d="M 215.910744 320.4 
L 221.444628 320.4 
L 221.444628 289.15102 
L 215.910744 289.15102 
z
" clip-path="url(#p4cbf788b9c)" style="fill: #4c72b0; stroke: #ffffff; stroke-linejoin: miter"/>
   </g>
   <g id="patch_21">
    <path d="M 221.444628 320.4 
L 226.978512 320.4 
L 226.978512 281.608163 
L 221.444628 281.608163 
z
" clip-path="url(#p4cbf788b9c)" style="fill: #4c72b0; stroke: #ffffff; stroke-linejoin: miter"/>
   </g>
   <g id="patch_22">
    <path d="M 226.978512 320.4 
L 232.512397 320.4 
L 232.512397 299.926531 
L 226.978512 299.926531 
z
" clip-path="url(#p4cbf788b9c)" style="fill: #4c72b0; stroke: #ffffff; stroke-linejoin: miter"/>
   </g>
   <g id="patch_23">
    <path d="M 232.512397 320.4 
L 238.046281 320.4 
L 238.046281 303.159184 
L 232.512397 303.159184 
z
" clip-path="url(#p4cbf788b9c)" style="fill: #4c72b0; stroke: #ffffff; stroke-linejoin: miter"/>
   </g>
   <g id="patch_24">
    <path d="M 238.046281 320.4 
L 243.580165 320.4 
L 243.580165 302.081633 
L 238.046281 302.081633 
z
" clip-path="url(#p4cbf788b9c)" style="fill: #4c72b0; stroke: #ffffff; stroke-linejoin: miter"/>
   </g>
   <g id="patch_25">
    <path d="M 243.580165 320.4 
L 249.11405 320.4 
L 249.11405 305.853061 
L 243.580165 305.853061 
z
" clip-path="url(#p4cbf788b9c)" style="fill: #4c72b0; stroke: #ffffff; stroke-linejoin: miter"/>
   </g>
   <g id="patch_26">
    <path d="M 249.11405 320.4 
L 254.647934 320.4 
L 254.647934 311.240816 
L 249.11405 311.240816 
z
" clip-path="url(#p4cbf788b9c)" style="fill: #4c72b0; stroke: #ffffff; stroke-linejoin: miter"/>
   </g>
   <g id="patch_27">
    <path d="M 254.647934 320.4 
L 260.181818 320.4 
L 260.181818 304.77551 
L 254.647934 304.77551 
z
" clip-path="url(#p4cbf788b9c)" style="fill: #4c72b0; stroke: #ffffff; stroke-linejoin: miter"/>
   </g>
   <g id="patch_28">
    <path d="M 260.181818 320.4 
L 265.715702 320.4 
L 265.715702 314.473469 
L 260.181818 314.473469 
z
" clip-path="url(#p4cbf788b9c)" style="fill: #4c72b0; stroke: #ffffff; stroke-linejoin: miter"/>
   </g>
   <g id="patch_29">
    <path d="M 265.715702 320.4 
L 271.249587 320.4 
L 271.249587 311.240816 
L 265.715702 311.240816 
z
" clip-path="url(#p4cbf788b9c)" style="fill: #4c72b0; stroke: #ffffff; stroke-linejoin: miter"/>
   </g>
   <g id="patch_30">
    <path d="M 271.249587 320.4 
L 276.783471 320.4 
L 276.783471 317.706122 
L 271.249587 317.706122 
z
" clip-path="url(#p4cbf788b9c)" style="fill: #4c72b0; stroke: #ffffff; stroke-linejoin: miter"/>
   </g>
   <g id="patch_31">
    <path d="M 276.783471 320.4 
L 282.317355 320.4 
L 282.317355 313.934694 
L 276.783471 313.934694 
z
" clip-path="url(#p4cbf788b9c)" style="fill: #4c72b0; stroke: #ffffff; stroke-linejoin: miter"/>
   </g>
   <g id="patch_32">
    <path d="M 282.317355 320.4 
L 287.85124 320.4 
L 287.85124 316.089796 
L 282.317355 316.089796 
z
" clip-path="url(#p4cbf788b9c)" style="fill: #4c72b0; stroke: #ffffff; stroke-linejoin: miter"/>
   </g>
   <g id="patch_33">
    <path d="M 287.85124 320.4 
L 293.385124 320.4 
L 293.385124 313.934694 
L 287.85124 313.934694 
z
" clip-path="url(#p4cbf788b9c)" style="fill: #4c72b0; stroke: #ffffff; stroke-linejoin: miter"/>
   </g>
   <g id="patch_34">
    <path d="M 293.385124 320.4 
L 298.919008 320.4 
L 298.919008 313.934694 
L 293.385124 313.934694 
z
" clip-path="url(#p4cbf788b9c)" style="fill: #4c72b0; stroke: #ffffff; stroke-linejoin: miter"/>
   </g>
   <g id="patch_35">
    <path d="M 298.919008 320.4 
L 304.452893 320.4 
L 304.452893 319.861224 
L 298.919008 319.861224 
z
" clip-path="url(#p4cbf788b9c)" style="fill: #4c72b0; stroke: #ffffff; stroke-linejoin: miter"/>
   </g>
   <g id="patch_36">
    <path d="M 304.452893 320.4 
L 309.986777 320.4 
L 309.986777 318.783673 
L 304.452893 318.783673 
z
" clip-path="url(#p4cbf788b9c)" style="fill: #4c72b0; stroke: #ffffff; stroke-linejoin: miter"/>
   </g>
   <g id="patch_37">
    <path d="M 309.986777 320.4 
L 315.520661 320.4 
L 315.520661 319.322449 
L 309.986777 319.322449 
z
" clip-path="url(#p4cbf788b9c)" style="fill: #4c72b0; stroke: #ffffff; stroke-linejoin: miter"/>
   </g>
   <g id="patch_38">
    <path d="M 315.520661 320.4 
L 321.054545 320.4 
L 321.054545 317.167347 
L 315.520661 317.167347 
z
" clip-path="url(#p4cbf788b9c)" style="fill: #4c72b0; stroke: #ffffff; stroke-linejoin: miter"/>
   </g>
   <g id="patch_39">
    <path d="M 321.054545 320.4 
L 326.58843 320.4 
L 326.58843 313.395918 
L 321.054545 313.395918 
z
" clip-path="url(#p4cbf788b9c)" style="fill: #4c72b0; stroke: #ffffff; stroke-linejoin: miter"/>
   </g>
   <g id="patch_40">
    <path d="M 326.58843 320.4 
L 332.122314 320.4 
L 332.122314 309.085714 
L 326.58843 309.085714 
z
" clip-path="url(#p4cbf788b9c)" style="fill: #4c72b0; stroke: #ffffff; stroke-linejoin: miter"/>
   </g>
   <g id="patch_41">
    <path d="M 332.122314 320.4 
L 337.656198 320.4 
L 337.656198 290.767347 
L 332.122314 290.767347 
z
" clip-path="url(#p4cbf788b9c)" style="fill: #4c72b0; stroke: #ffffff; stroke-linejoin: miter"/>
   </g>
   <g id="patch_42">
    <path d="M 337.656198 320.4 
L 343.190083 320.4 
L 343.190083 309.085714 
L 337.656198 309.085714 
z
" clip-path="url(#p4cbf788b9c)" style="fill: #4c72b0; stroke: #ffffff; stroke-linejoin: miter"/>
   </g>
   <g id="patch_43">
    <path d="M 343.190083 320.4 
L 348.723967 320.4 
L 348.723967 297.232653 
L 343.190083 297.232653 
z
" clip-path="url(#p4cbf788b9c)" style="fill: #4c72b0; stroke: #ffffff; stroke-linejoin: miter"/>
   </g>
   <g id="patch_44">
    <path d="M 348.723967 320.4 
L 354.257851 320.4 
L 354.257851 308.008163 
L 348.723967 308.008163 
z
" clip-path="url(#p4cbf788b9c)" style="fill: #4c72b0; stroke: #ffffff; stroke-linejoin: miter"/>
   </g>
   <g id="patch_45">
    <path d="M 354.257851 320.4 
L 359.791736 320.4 
L 359.791736 317.167347 
L 354.257851 317.167347 
z
" clip-path="url(#p4cbf788b9c)" style="fill: #4c72b0; stroke: #ffffff; stroke-linejoin: miter"/>
   </g>
   <g id="patch_46">
    <path d="M 359.791736 320.4 
L 365.32562 320.4 
L 365.32562 315.55102 
L 359.791736 315.55102 
z
" clip-path="url(#p4cbf788b9c)" style="fill: #4c72b0; stroke: #ffffff; stroke-linejoin: miter"/>
   </g>
   <g id="patch_47">
    <path d="M 365.32562 320.4 
L 370.859504 320.4 
L 370.859504 319.861224 
L 365.32562 319.861224 
z
" clip-path="url(#p4cbf788b9c)" style="fill: #4c72b0; stroke: #ffffff; stroke-linejoin: miter"/>
   </g>
   <g id="patch_48">
    <path d="M 370.859504 320.4 
L 376.393388 320.4 
L 376.393388 320.4 
L 370.859504 320.4 
z
" clip-path="url(#p4cbf788b9c)" style="fill: #4c72b0; stroke: #ffffff; stroke-linejoin: miter"/>
   </g>
   <g id="patch_49">
    <path d="M 376.393388 320.4 
L 381.927273 320.4 
L 381.927273 319.861224 
L 376.393388 319.861224 
z
" clip-path="url(#p4cbf788b9c)" style="fill: #4c72b0; stroke: #ffffff; stroke-linejoin: miter"/>
   </g>
   <g id="patch_50">
    <path d="M 381.927273 320.4 
L 387.461157 320.4 
L 387.461157 320.4 
L 381.927273 320.4 
z
" clip-path="url(#p4cbf788b9c)" style="fill: #4c72b0; stroke: #ffffff; stroke-linejoin: miter"/>
   </g>
   <g id="patch_51">
    <path d="M 387.461157 320.4 
L 392.995041 320.4 
L 392.995041 320.4 
L 387.461157 320.4 
z
" clip-path="url(#p4cbf788b9c)" style="fill: #4c72b0; stroke: #ffffff; stroke-linejoin: miter"/>
   </g>
   <g id="patch_52">
    <path d="M 392.995041 320.4 
L 398.528926 320.4 
L 398.528926 319.322449 
L 392.995041 319.322449 
z
" clip-path="url(#p4cbf788b9c)" style="fill: #4c72b0; stroke: #ffffff; stroke-linejoin: miter"/>
   </g>
   <g id="patch_53">
    <path d="M 108 320.4 
L 108 43.2 
" style="fill: none; stroke: #cccccc; stroke-width: 1.25; stroke-linejoin: miter; stroke-linecap: square"/>
   </g>
   <g id="patch_54">
    <path d="M 412.363636 320.4 
L 412.363636 43.2 
" style="fill: none; stroke: #cccccc; stroke-width: 1.25; stroke-linejoin: miter; stroke-linecap: square"/>
   </g>
   <g id="patch_55">
    <path d="M 108 320.4 
L 412.363636 320.4 
" style="fill: none; stroke: #cccccc; stroke-width: 1.25; stroke-linejoin: miter; stroke-linecap: square"/>
   </g>
   <g id="patch_56">
    <path d="M 108 43.2 
L 412.363636 43.2 
" style="fill: none; stroke: #cccccc; stroke-width: 1.25; stroke-linejoin: miter; stroke-linecap: square"/>
   </g>
   <g id="text_15">
    <!-- Power scalar distribution on Computer 2 - Low settings -->
    <g style="fill: #262626" transform="translate(95.660881 37.2) scale(0.12 -0.12)">
     <defs>
      <path id="DejaVuSans-64" d="M 2906 2969 
L 2906 4863 
L 3481 4863 
L 3481 0 
L 2906 0 
L 2906 525 
Q 2725 213 2448 61 
Q 2172 -91 1784 -91 
Q 1150 -91 751 415 
Q 353 922 353 1747 
Q 353 2572 751 3078 
Q 1150 3584 1784 3584 
Q 2172 3584 2448 3432 
Q 2725 3281 2906 2969 
z
M 947 1747 
Q 947 1113 1208 752 
Q 1469 391 1925 391 
Q 2381 391 2643 752 
Q 2906 1113 2906 1747 
Q 2906 2381 2643 2742 
Q 2381 3103 1925 3103 
Q 1469 3103 1208 2742 
Q 947 2381 947 1747 
z
" transform="scale(0.015625)"/>
      <path id="DejaVuSans-69" d="M 603 3500 
L 1178 3500 
L 1178 0 
L 603 0 
L 603 3500 
z
M 603 4863 
L 1178 4863 
L 1178 4134 
L 603 4134 
L 603 4863 
z
" transform="scale(0.015625)"/>
      <path id="DejaVuSans-74" d="M 1172 4494 
L 1172 3500 
L 2356 3500 
L 2356 3053 
L 1172 3053 
L 1172 1153 
Q 1172 725 1289 603 
Q 1406 481 1766 481 
L 2356 481 
L 2356 0 
L 1766 0 
Q 1100 0 847 248 
Q 594 497 594 1153 
L 594 3053 
L 172 3053 
L 172 3500 
L 594 3500 
L 594 4494 
L 1172 4494 
z
" transform="scale(0.015625)"/>
      <path id="DejaVuSans-62" d="M 3116 1747 
Q 3116 2381 2855 2742 
Q 2594 3103 2138 3103 
Q 1681 3103 1420 2742 
Q 1159 2381 1159 1747 
Q 1159 1113 1420 752 
Q 1681 391 2138 391 
Q 2594 391 2855 752 
Q 3116 1113 3116 1747 
z
M 1159 2969 
Q 1341 3281 1617 3432 
Q 1894 3584 2278 3584 
Q 2916 3584 3314 3078 
Q 3713 2572 3713 1747 
Q 3713 922 3314 415 
Q 2916 -91 2278 -91 
Q 1894 -91 1617 61 
Q 1341 213 1159 525 
L 1159 0 
L 581 0 
L 581 4863 
L 1159 4863 
L 1159 2969 
z
" transform="scale(0.015625)"/>
      <path id="DejaVuSans-43" d="M 4122 4306 
L 4122 3641 
Q 3803 3938 3442 4084 
Q 3081 4231 2675 4231 
Q 1875 4231 1450 3742 
Q 1025 3253 1025 2328 
Q 1025 1406 1450 917 
Q 1875 428 2675 428 
Q 3081 428 3442 575 
Q 3803 722 4122 1019 
L 4122 359 
Q 3791 134 3420 21 
Q 3050 -91 2638 -91 
Q 1578 -91 968 557 
Q 359 1206 359 2328 
Q 359 3453 968 4101 
Q 1578 4750 2638 4750 
Q 3056 4750 3426 4639 
Q 3797 4528 4122 4306 
z
" transform="scale(0.015625)"/>
      <path id="DejaVuSans-6d" d="M 3328 2828 
Q 3544 3216 3844 3400 
Q 4144 3584 4550 3584 
Q 5097 3584 5394 3201 
Q 5691 2819 5691 2113 
L 5691 0 
L 5113 0 
L 5113 2094 
Q 5113 2597 4934 2840 
Q 4756 3084 4391 3084 
Q 3944 3084 3684 2787 
Q 3425 2491 3425 1978 
L 3425 0 
L 2847 0 
L 2847 2094 
Q 2847 2600 2669 2842 
Q 2491 3084 2119 3084 
Q 1678 3084 1418 2786 
Q 1159 2488 1159 1978 
L 1159 0 
L 581 0 
L 581 3500 
L 1159 3500 
L 1159 2956 
Q 1356 3278 1631 3431 
Q 1906 3584 2284 3584 
Q 2666 3584 2933 3390 
Q 3200 3197 3328 2828 
z
" transform="scale(0.015625)"/>
      <path id="DejaVuSans-70" d="M 1159 525 
L 1159 -1331 
L 581 -1331 
L 581 3500 
L 1159 3500 
L 1159 2969 
Q 1341 3281 1617 3432 
Q 1894 3584 2278 3584 
Q 2916 3584 3314 3078 
Q 3713 2572 3713 1747 
Q 3713 922 3314 415 
Q 2916 -91 2278 -91 
Q 1894 -91 1617 61 
Q 1341 213 1159 525 
z
M 3116 1747 
Q 3116 2381 2855 2742 
Q 2594 3103 2138 3103 
Q 1681 3103 1420 2742 
Q 1159 2381 1159 1747 
Q 1159 1113 1420 752 
Q 1681 391 2138 391 
Q 2594 391 2855 752 
Q 3116 1113 3116 1747 
z
" transform="scale(0.015625)"/>
      <path id="DejaVuSans-2d" d="M 313 2009 
L 1997 2009 
L 1997 1497 
L 313 1497 
L 313 2009 
z
" transform="scale(0.015625)"/>
      <path id="DejaVuSans-4c" d="M 628 4666 
L 1259 4666 
L 1259 531 
L 3531 531 
L 3531 0 
L 628 0 
L 628 4666 
z
" transform="scale(0.015625)"/>
      <path id="DejaVuSans-67" d="M 2906 1791 
Q 2906 2416 2648 2759 
Q 2391 3103 1925 3103 
Q 1463 3103 1205 2759 
Q 947 2416 947 1791 
Q 947 1169 1205 825 
Q 1463 481 1925 481 
Q 2391 481 2648 825 
Q 2906 1169 2906 1791 
z
M 3481 434 
Q 3481 -459 3084 -895 
Q 2688 -1331 1869 -1331 
Q 1566 -1331 1297 -1286 
Q 1028 -1241 775 -1147 
L 775 -588 
Q 1028 -725 1275 -790 
Q 1522 -856 1778 -856 
Q 2344 -856 2625 -561 
Q 2906 -266 2906 331 
L 2906 616 
Q 2728 306 2450 153 
Q 2172 0 1784 0 
Q 1141 0 747 490 
Q 353 981 353 1791 
Q 353 2603 747 3093 
Q 1141 3584 1784 3584 
Q 2172 3584 2450 3431 
Q 2728 3278 2906 2969 
L 2906 3500 
L 3481 3500 
L 3481 434 
z
" transform="scale(0.015625)"/>
     </defs>
     <use xlink:href="#DejaVuSans-50"/>
     <use xlink:href="#DejaVuSans-6f" transform="translate(56.677734 0)"/>
     <use xlink:href="#DejaVuSans-77" transform="translate(117.859375 0)"/>
     <use xlink:href="#DejaVuSans-65" transform="translate(199.646484 0)"/>
     <use xlink:href="#DejaVuSans-72" transform="translate(261.169922 0)"/>
     <use xlink:href="#DejaVuSans-20" transform="translate(302.283203 0)"/>
     <use xlink:href="#DejaVuSans-73" transform="translate(334.070312 0)"/>
     <use xlink:href="#DejaVuSans-63" transform="translate(386.169922 0)"/>
     <use xlink:href="#DejaVuSans-61" transform="translate(441.150391 0)"/>
     <use xlink:href="#DejaVuSans-6c" transform="translate(502.429688 0)"/>
     <use xlink:href="#DejaVuSans-61" transform="translate(530.212891 0)"/>
     <use xlink:href="#DejaVuSans-72" transform="translate(591.492188 0)"/>
     <use xlink:href="#DejaVuSans-20" transform="translate(632.605469 0)"/>
     <use xlink:href="#DejaVuSans-64" transform="translate(664.392578 0)"/>
     <use xlink:href="#DejaVuSans-69" transform="translate(727.869141 0)"/>
     <use xlink:href="#DejaVuSans-73" transform="translate(755.652344 0)"/>
     <use xlink:href="#DejaVuSans-74" transform="translate(807.751953 0)"/>
     <use xlink:href="#DejaVuSans-72" transform="translate(846.960938 0)"/>
     <use xlink:href="#DejaVuSans-69" transform="translate(888.074219 0)"/>
     <use xlink:href="#DejaVuSans-62" transform="translate(915.857422 0)"/>
     <use xlink:href="#DejaVuSans-75" transform="translate(979.333984 0)"/>
     <use xlink:href="#DejaVuSans-74" transform="translate(1042.712891 0)"/>
     <use xlink:href="#DejaVuSans-69" transform="translate(1081.921875 0)"/>
     <use xlink:href="#DejaVuSans-6f" transform="translate(1109.705078 0)"/>
     <use xlink:href="#DejaVuSans-6e" transform="translate(1170.886719 0)"/>
     <use xlink:href="#DejaVuSans-20" transform="translate(1234.265625 0)"/>
     <use xlink:href="#DejaVuSans-6f" transform="translate(1266.052734 0)"/>
     <use xlink:href="#DejaVuSans-6e" transform="translate(1327.234375 0)"/>
     <use xlink:href="#DejaVuSans-20" transform="translate(1390.613281 0)"/>
     <use xlink:href="#DejaVuSans-43" transform="translate(1422.400391 0)"/>
     <use xlink:href="#DejaVuSans-6f" transform="translate(1492.224609 0)"/>
     <use xlink:href="#DejaVuSans-6d" transform="translate(1553.40625 0)"/>
     <use xlink:href="#DejaVuSans-70" transform="translate(1650.818359 0)"/>
     <use xlink:href="#DejaVuSans-75" transform="translate(1714.294922 0)"/>
     <use xlink:href="#DejaVuSans-74" transform="translate(1777.673828 0)"/>
     <use xlink:href="#DejaVuSans-65" transform="translate(1816.882812 0)"/>
     <use xlink:href="#DejaVuSans-72" transform="translate(1878.40625 0)"/>
     <use xlink:href="#DejaVuSans-20" transform="translate(1919.519531 0)"/>
     <use xlink:href="#DejaVuSans-32" transform="translate(1951.306641 0)"/>
     <use xlink:href="#DejaVuSans-20" transform="translate(2014.929688 0)"/>
     <use xlink:href="#DejaVuSans-2d" transform="translate(2046.716797 0)"/>
     <use xlink:href="#DejaVuSans-20" transform="translate(2082.800781 0)"/>
     <use xlink:href="#DejaVuSans-4c" transform="translate(2114.587891 0)"/>
     <use xlink:href="#DejaVuSans-6f" transform="translate(2168.550781 0)"/>
     <use xlink:href="#DejaVuSans-77" transform="translate(2229.732422 0)"/>
     <use xlink:href="#DejaVuSans-20" transform="translate(2311.519531 0)"/>
     <use xlink:href="#DejaVuSans-73" transform="translate(2343.306641 0)"/>
     <use xlink:href="#DejaVuSans-65" transform="translate(2395.40625 0)"/>
     <use xlink:href="#DejaVuSans-74" transform="translate(2456.929688 0)"/>
     <use xlink:href="#DejaVuSans-74" transform="translate(2496.138672 0)"/>
     <use xlink:href="#DejaVuSans-69" transform="translate(2535.347656 0)"/>
     <use xlink:href="#DejaVuSans-6e" transform="translate(2563.130859 0)"/>
     <use xlink:href="#DejaVuSans-67" transform="translate(2626.509766 0)"/>
     <use xlink:href="#DejaVuSans-73" transform="translate(2689.986328 0)"/>
    </g>
   </g>
  </g>
  <g id="axes_2">
   <g id="patch_57">
    <path d="M 473.236364 320.4 
L 777.6 320.4 
L 777.6 43.2 
L 473.236364 43.2 
z
" style="fill: #ffffff"/>
   </g>
   <g id="matplotlib.axis_3">
    <g id="xtick_7">
     <g id="line2d_13">
      <path d="M 487.071074 320.4 
L 487.071074 43.2 
" clip-path="url(#p3f66a13b18)" style="fill: none; stroke: #cccccc; stroke-linecap: round"/>
     </g>
     <g id="text_16">
      <!-- 0 -->
      <g style="fill: #262626" transform="translate(483.571699 338.258281) scale(0.11 -0.11)">
       <use xlink:href="#DejaVuSans-30"/>
      </g>
     </g>
    </g>
    <g id="xtick_8">
     <g id="line2d_14">
      <path d="M 524.098382 320.4 
L 524.098382 43.2 
" clip-path="url(#p3f66a13b18)" style="fill: none; stroke: #cccccc; stroke-linecap: round"/>
     </g>
     <g id="text_17">
      <!-- 200 -->
      <g style="fill: #262626" transform="translate(513.600257 338.258281) scale(0.11 -0.11)">
       <use xlink:href="#DejaVuSans-32"/>
       <use xlink:href="#DejaVuSans-30" transform="translate(63.623047 0)"/>
       <use xlink:href="#DejaVuSans-30" transform="translate(127.246094 0)"/>
      </g>
     </g>
    </g>
    <g id="xtick_9">
     <g id="line2d_15">
      <path d="M 561.125691 320.4 
L 561.125691 43.2 
" clip-path="url(#p3f66a13b18)" style="fill: none; stroke: #cccccc; stroke-linecap: round"/>
     </g>
     <g id="text_18">
      <!-- 400 -->
      <g style="fill: #262626" transform="translate(550.627566 338.258281) scale(0.11 -0.11)">
       <use xlink:href="#DejaVuSans-34"/>
       <use xlink:href="#DejaVuSans-30" transform="translate(63.623047 0)"/>
       <use xlink:href="#DejaVuSans-30" transform="translate(127.246094 0)"/>
      </g>
     </g>
    </g>
    <g id="xtick_10">
     <g id="line2d_16">
      <path d="M 598.152999 320.4 
L 598.152999 43.2 
" clip-path="url(#p3f66a13b18)" style="fill: none; stroke: #cccccc; stroke-linecap: round"/>
     </g>
     <g id="text_19">
      <!-- 600 -->
      <g style="fill: #262626" transform="translate(587.654874 338.258281) scale(0.11 -0.11)">
       <use xlink:href="#DejaVuSans-36"/>
       <use xlink:href="#DejaVuSans-30" transform="translate(63.623047 0)"/>
       <use xlink:href="#DejaVuSans-30" transform="translate(127.246094 0)"/>
      </g>
     </g>
    </g>
    <g id="xtick_11">
     <g id="line2d_17">
      <path d="M 635.180307 320.4 
L 635.180307 43.2 
" clip-path="url(#p3f66a13b18)" style="fill: none; stroke: #cccccc; stroke-linecap: round"/>
     </g>
     <g id="text_20">
      <!-- 800 -->
      <g style="fill: #262626" transform="translate(624.682182 338.258281) scale(0.11 -0.11)">
       <use xlink:href="#DejaVuSans-38"/>
       <use xlink:href="#DejaVuSans-30" transform="translate(63.623047 0)"/>
       <use xlink:href="#DejaVuSans-30" transform="translate(127.246094 0)"/>
      </g>
     </g>
    </g>
    <g id="xtick_12">
     <g id="line2d_18">
      <path d="M 672.207615 320.4 
L 672.207615 43.2 
" clip-path="url(#p3f66a13b18)" style="fill: none; stroke: #cccccc; stroke-linecap: round"/>
     </g>
     <g id="text_21">
      <!-- 1000 -->
      <g style="fill: #262626" transform="translate(658.210115 338.258281) scale(0.11 -0.11)">
       <use xlink:href="#DejaVuSans-31"/>
       <use xlink:href="#DejaVuSans-30" transform="translate(63.623047 0)"/>
       <use xlink:href="#DejaVuSans-30" transform="translate(127.246094 0)"/>
       <use xlink:href="#DejaVuSans-30" transform="translate(190.869141 0)"/>
      </g>
     </g>
    </g>
    <g id="xtick_13">
     <g id="line2d_19">
      <path d="M 709.234923 320.4 
L 709.234923 43.2 
" clip-path="url(#p3f66a13b18)" style="fill: none; stroke: #cccccc; stroke-linecap: round"/>
     </g>
     <g id="text_22">
      <!-- 1200 -->
      <g style="fill: #262626" transform="translate(695.237423 338.258281) scale(0.11 -0.11)">
       <use xlink:href="#DejaVuSans-31"/>
       <use xlink:href="#DejaVuSans-32" transform="translate(63.623047 0)"/>
       <use xlink:href="#DejaVuSans-30" transform="translate(127.246094 0)"/>
       <use xlink:href="#DejaVuSans-30" transform="translate(190.869141 0)"/>
      </g>
     </g>
    </g>
    <g id="xtick_14">
     <g id="line2d_20">
      <path d="M 746.262231 320.4 
L 746.262231 43.2 
" clip-path="url(#p3f66a13b18)" style="fill: none; stroke: #cccccc; stroke-linecap: round"/>
     </g>
     <g id="text_23">
      <!-- 1400 -->
      <g style="fill: #262626" transform="translate(732.264731 338.258281) scale(0.11 -0.11)">
       <use xlink:href="#DejaVuSans-31"/>
       <use xlink:href="#DejaVuSans-34" transform="translate(63.623047 0)"/>
       <use xlink:href="#DejaVuSans-30" transform="translate(127.246094 0)"/>
       <use xlink:href="#DejaVuSans-30" transform="translate(190.869141 0)"/>
      </g>
     </g>
    </g>
    <g id="text_24">
     <!-- Power scalar -->
     <g style="fill: #262626" transform="translate(587.462557 353.664062) scale(0.12 -0.12)">
      <use xlink:href="#DejaVuSans-50"/>
      <use xlink:href="#DejaVuSans-6f" transform="translate(56.677734 0)"/>
      <use xlink:href="#DejaVuSans-77" transform="translate(117.859375 0)"/>
      <use xlink:href="#DejaVuSans-65" transform="translate(199.646484 0)"/>
      <use xlink:href="#DejaVuSans-72" transform="translate(261.169922 0)"/>
      <use xlink:href="#DejaVuSans-20" transform="translate(302.283203 0)"/>
      <use xlink:href="#DejaVuSans-73" transform="translate(334.070312 0)"/>
      <use xlink:href="#DejaVuSans-63" transform="translate(386.169922 0)"/>
      <use xlink:href="#DejaVuSans-61" transform="translate(441.150391 0)"/>
      <use xlink:href="#DejaVuSans-6c" transform="translate(502.429688 0)"/>
      <use xlink:href="#DejaVuSans-61" transform="translate(530.212891 0)"/>
      <use xlink:href="#DejaVuSans-72" transform="translate(591.492188 0)"/>
     </g>
    </g>
   </g>
   <g id="matplotlib.axis_4">
    <g id="ytick_7">
     <g id="line2d_21">
      <path d="M 473.236364 320.4 
L 777.6 320.4 
" clip-path="url(#p3f66a13b18)" style="fill: none; stroke: #cccccc; stroke-linecap: round"/>
     </g>
     <g id="text_25">
      <!-- 0 -->
      <g style="fill: #262626" transform="translate(456.737614 324.579141) scale(0.11 -0.11)">
       <use xlink:href="#DejaVuSans-30"/>
      </g>
     </g>
    </g>
    <g id="ytick_8">
     <g id="line2d_22">
      <path d="M 473.236364 259.849541 
L 777.6 259.849541 
" clip-path="url(#p3f66a13b18)" style="fill: none; stroke: #cccccc; stroke-linecap: round"/>
     </g>
     <g id="text_26">
      <!-- 100 -->
      <g style="fill: #262626" transform="translate(442.740114 264.028682) scale(0.11 -0.11)">
       <use xlink:href="#DejaVuSans-31"/>
       <use xlink:href="#DejaVuSans-30" transform="translate(63.623047 0)"/>
       <use xlink:href="#DejaVuSans-30" transform="translate(127.246094 0)"/>
      </g>
     </g>
    </g>
    <g id="ytick_9">
     <g id="line2d_23">
      <path d="M 473.236364 199.299083 
L 777.6 199.299083 
" clip-path="url(#p3f66a13b18)" style="fill: none; stroke: #cccccc; stroke-linecap: round"/>
     </g>
     <g id="text_27">
      <!-- 200 -->
      <g style="fill: #262626" transform="translate(442.740114 203.478223) scale(0.11 -0.11)">
       <use xlink:href="#DejaVuSans-32"/>
       <use xlink:href="#DejaVuSans-30" transform="translate(63.623047 0)"/>
       <use xlink:href="#DejaVuSans-30" transform="translate(127.246094 0)"/>
      </g>
     </g>
    </g>
    <g id="ytick_10">
     <g id="line2d_24">
      <path d="M 473.236364 138.748624 
L 777.6 138.748624 
" clip-path="url(#p3f66a13b18)" style="fill: none; stroke: #cccccc; stroke-linecap: round"/>
     </g>
     <g id="text_28">
      <!-- 300 -->
      <g style="fill: #262626" transform="translate(442.740114 142.927764) scale(0.11 -0.11)">
       <use xlink:href="#DejaVuSans-33"/>
       <use xlink:href="#DejaVuSans-30" transform="translate(63.623047 0)"/>
       <use xlink:href="#DejaVuSans-30" transform="translate(127.246094 0)"/>
      </g>
     </g>
    </g>
    <g id="ytick_11">
     <g id="line2d_25">
      <path d="M 473.236364 78.198165 
L 777.6 78.198165 
" clip-path="url(#p3f66a13b18)" style="fill: none; stroke: #cccccc; stroke-linecap: round"/>
     </g>
     <g id="text_29">
      <!-- 400 -->
      <g style="fill: #262626" transform="translate(442.740114 82.377306) scale(0.11 -0.11)">
       <use xlink:href="#DejaVuSans-34"/>
       <use xlink:href="#DejaVuSans-30" transform="translate(63.623047 0)"/>
       <use xlink:href="#DejaVuSans-30" transform="translate(127.246094 0)"/>
      </g>
     </g>
    </g>
   </g>
   <g id="patch_58">
    <path d="M 487.071074 320.4 
L 492.604959 320.4 
L 492.604959 85.46422 
L 487.071074 85.46422 
z
" clip-path="url(#p3f66a13b18)" style="fill: #4c72b0; stroke: #ffffff; stroke-linejoin: miter"/>
   </g>
   <g id="patch_59">
    <path d="M 492.604959 320.4 
L 498.138843 320.4 
L 498.138843 152.069725 
L 492.604959 152.069725 
z
" clip-path="url(#p3f66a13b18)" style="fill: #4c72b0; stroke: #ffffff; stroke-linejoin: miter"/>
   </g>
   <g id="patch_60">
    <path d="M 498.138843 320.4 
L 503.672727 320.4 
L 503.672727 85.46422 
L 498.138843 85.46422 
z
" clip-path="url(#p3f66a13b18)" style="fill: #4c72b0; stroke: #ffffff; stroke-linejoin: miter"/>
   </g>
   <g id="patch_61">
    <path d="M 503.672727 320.4 
L 509.206612 320.4 
L 509.206612 160.546789 
L 503.672727 160.546789 
z
" clip-path="url(#p3f66a13b18)" style="fill: #4c72b0; stroke: #ffffff; stroke-linejoin: miter"/>
   </g>
   <g id="patch_62">
    <path d="M 509.206612 320.4 
L 514.740496 320.4 
L 514.740496 235.629358 
L 509.206612 235.629358 
z
" clip-path="url(#p3f66a13b18)" style="fill: #4c72b0; stroke: #ffffff; stroke-linejoin: miter"/>
   </g>
   <g id="patch_63">
    <path d="M 514.740496 320.4 
L 520.27438 320.4 
L 520.27438 264.088073 
L 514.740496 264.088073 
z
" clip-path="url(#p3f66a13b18)" style="fill: #4c72b0; stroke: #ffffff; stroke-linejoin: miter"/>
   </g>
   <g id="patch_64">
    <path d="M 520.27438 320.4 
L 525.808264 320.4 
L 525.808264 301.023853 
L 520.27438 301.023853 
z
" clip-path="url(#p3f66a13b18)" style="fill: #4c72b0; stroke: #ffffff; stroke-linejoin: miter"/>
   </g>
   <g id="patch_65">
    <path d="M 525.808264 320.4 
L 531.342149 320.4 
L 531.342149 308.289908 
L 525.808264 308.289908 
z
" clip-path="url(#p3f66a13b18)" style="fill: #4c72b0; stroke: #ffffff; stroke-linejoin: miter"/>
   </g>
   <g id="patch_66">
    <path d="M 531.342149 320.4 
L 536.876033 320.4 
L 536.876033 304.656881 
L 531.342149 304.656881 
z
" clip-path="url(#p3f66a13b18)" style="fill: #4c72b0; stroke: #ffffff; stroke-linejoin: miter"/>
   </g>
   <g id="patch_67">
    <path d="M 536.876033 320.4 
L 542.409917 320.4 
L 542.409917 313.133945 
L 536.876033 313.133945 
z
" clip-path="url(#p3f66a13b18)" style="fill: #4c72b0; stroke: #ffffff; stroke-linejoin: miter"/>
   </g>
   <g id="patch_68">
    <path d="M 542.409917 320.4 
L 547.943802 320.4 
L 547.943802 317.372477 
L 542.409917 317.372477 
z
" clip-path="url(#p3f66a13b18)" style="fill: #4c72b0; stroke: #ffffff; stroke-linejoin: miter"/>
   </g>
   <g id="patch_69">
    <path d="M 547.943802 320.4 
L 553.477686 320.4 
L 553.477686 317.977982 
L 547.943802 317.977982 
z
" clip-path="url(#p3f66a13b18)" style="fill: #4c72b0; stroke: #ffffff; stroke-linejoin: miter"/>
   </g>
   <g id="patch_70">
    <path d="M 553.477686 320.4 
L 559.01157 320.4 
L 559.01157 318.583486 
L 553.477686 318.583486 
z
" clip-path="url(#p3f66a13b18)" style="fill: #4c72b0; stroke: #ffffff; stroke-linejoin: miter"/>
   </g>
   <g id="patch_71">
    <path d="M 559.01157 320.4 
L 564.545455 320.4 
L 564.545455 318.583486 
L 559.01157 318.583486 
z
" clip-path="url(#p3f66a13b18)" style="fill: #4c72b0; stroke: #ffffff; stroke-linejoin: miter"/>
   </g>
   <g id="patch_72">
    <path d="M 564.545455 320.4 
L 570.079339 320.4 
L 570.079339 319.188991 
L 564.545455 319.188991 
z
" clip-path="url(#p3f66a13b18)" style="fill: #4c72b0; stroke: #ffffff; stroke-linejoin: miter"/>
   </g>
   <g id="patch_73">
    <path d="M 570.079339 320.4 
L 575.613223 320.4 
L 575.613223 317.977982 
L 570.079339 317.977982 
z
" clip-path="url(#p3f66a13b18)" style="fill: #4c72b0; stroke: #ffffff; stroke-linejoin: miter"/>
   </g>
   <g id="patch_74">
    <path d="M 575.613223 320.4 
L 581.147107 320.4 
L 581.147107 319.188991 
L 575.613223 319.188991 
z
" clip-path="url(#p3f66a13b18)" style="fill: #4c72b0; stroke: #ffffff; stroke-linejoin: miter"/>
   </g>
   <g id="patch_75">
    <path d="M 581.147107 320.4 
L 586.680992 320.4 
L 586.680992 316.766972 
L 581.147107 316.766972 
z
" clip-path="url(#p3f66a13b18)" style="fill: #4c72b0; stroke: #ffffff; stroke-linejoin: miter"/>
   </g>
   <g id="patch_76">
    <path d="M 586.680992 320.4 
L 592.214876 320.4 
L 592.214876 317.372477 
L 586.680992 317.372477 
z
" clip-path="url(#p3f66a13b18)" style="fill: #4c72b0; stroke: #ffffff; stroke-linejoin: miter"/>
   </g>
   <g id="patch_77">
    <path d="M 592.214876 320.4 
L 597.74876 320.4 
L 597.74876 317.977982 
L 592.214876 317.977982 
z
" clip-path="url(#p3f66a13b18)" style="fill: #4c72b0; stroke: #ffffff; stroke-linejoin: miter"/>
   </g>
   <g id="patch_78">
    <path d="M 597.74876 320.4 
L 603.282645 320.4 
L 603.282645 320.4 
L 597.74876 320.4 
z
" clip-path="url(#p3f66a13b18)" style="fill: #4c72b0; stroke: #ffffff; stroke-linejoin: miter"/>
   </g>
   <g id="patch_79">
    <path d="M 603.282645 320.4 
L 608.816529 320.4 
L 608.816529 317.372477 
L 603.282645 317.372477 
z
" clip-path="url(#p3f66a13b18)" style="fill: #4c72b0; stroke: #ffffff; stroke-linejoin: miter"/>
   </g>
   <g id="patch_80">
    <path d="M 608.816529 320.4 
L 614.350413 320.4 
L 614.350413 317.372477 
L 608.816529 317.372477 
z
" clip-path="url(#p3f66a13b18)" style="fill: #4c72b0; stroke: #ffffff; stroke-linejoin: miter"/>
   </g>
   <g id="patch_81">
    <path d="M 614.350413 320.4 
L 619.884298 320.4 
L 619.884298 317.372477 
L 614.350413 317.372477 
z
" clip-path="url(#p3f66a13b18)" style="fill: #4c72b0; stroke: #ffffff; stroke-linejoin: miter"/>
   </g>
   <g id="patch_82">
    <path d="M 619.884298 320.4 
L 625.418182 320.4 
L 625.418182 315.555963 
L 619.884298 315.555963 
z
" clip-path="url(#p3f66a13b18)" style="fill: #4c72b0; stroke: #ffffff; stroke-linejoin: miter"/>
   </g>
   <g id="patch_83">
    <path d="M 625.418182 320.4 
L 630.952066 320.4 
L 630.952066 316.766972 
L 625.418182 316.766972 
z
" clip-path="url(#p3f66a13b18)" style="fill: #4c72b0; stroke: #ffffff; stroke-linejoin: miter"/>
   </g>
   <g id="patch_84">
    <path d="M 630.952066 320.4 
L 636.48595 320.4 
L 636.48595 315.555963 
L 630.952066 315.555963 
z
" clip-path="url(#p3f66a13b18)" style="fill: #4c72b0; stroke: #ffffff; stroke-linejoin: miter"/>
   </g>
   <g id="patch_85">
    <path d="M 636.48595 320.4 
L 642.019835 320.4 
L 642.019835 312.52844 
L 636.48595 312.52844 
z
" clip-path="url(#p3f66a13b18)" style="fill: #4c72b0; stroke: #ffffff; stroke-linejoin: miter"/>
   </g>
   <g id="patch_86">
    <path d="M 642.019835 320.4 
L 647.553719 320.4 
L 647.553719 307.078899 
L 642.019835 307.078899 
z
" clip-path="url(#p3f66a13b18)" style="fill: #4c72b0; stroke: #ffffff; stroke-linejoin: miter"/>
   </g>
   <g id="patch_87">
    <path d="M 647.553719 320.4 
L 653.087603 320.4 
L 653.087603 297.390826 
L 647.553719 297.390826 
z
" clip-path="url(#p3f66a13b18)" style="fill: #4c72b0; stroke: #ffffff; stroke-linejoin: miter"/>
   </g>
   <g id="patch_88">
    <path d="M 653.087603 320.4 
L 658.621488 320.4 
L 658.621488 220.491743 
L 653.087603 220.491743 
z
" clip-path="url(#p3f66a13b18)" style="fill: #4c72b0; stroke: #ffffff; stroke-linejoin: miter"/>
   </g>
   <g id="patch_89">
    <path d="M 658.621488 320.4 
L 664.155372 320.4 
L 664.155372 185.372477 
L 658.621488 185.372477 
z
" clip-path="url(#p3f66a13b18)" style="fill: #4c72b0; stroke: #ffffff; stroke-linejoin: miter"/>
   </g>
   <g id="patch_90">
    <path d="M 664.155372 320.4 
L 669.689256 320.4 
L 669.689256 198.693578 
L 664.155372 198.693578 
z
" clip-path="url(#p3f66a13b18)" style="fill: #4c72b0; stroke: #ffffff; stroke-linejoin: miter"/>
   </g>
   <g id="patch_91">
    <path d="M 669.689256 320.4 
L 675.22314 320.4 
L 675.22314 56.4 
L 669.689256 56.4 
z
" clip-path="url(#p3f66a13b18)" style="fill: #4c72b0; stroke: #ffffff; stroke-linejoin: miter"/>
   </g>
   <g id="patch_92">
    <path d="M 675.22314 320.4 
L 680.757025 320.4 
L 680.757025 219.280734 
L 675.22314 219.280734 
z
" clip-path="url(#p3f66a13b18)" style="fill: #4c72b0; stroke: #ffffff; stroke-linejoin: miter"/>
   </g>
   <g id="patch_93">
    <path d="M 680.757025 320.4 
L 686.290909 320.4 
L 686.290909 149.042202 
L 680.757025 149.042202 
z
" clip-path="url(#p3f66a13b18)" style="fill: #4c72b0; stroke: #ffffff; stroke-linejoin: miter"/>
   </g>
   <g id="patch_94">
    <path d="M 686.290909 320.4 
L 691.824793 320.4 
L 691.824793 260.455046 
L 686.290909 260.455046 
z
" clip-path="url(#p3f66a13b18)" style="fill: #4c72b0; stroke: #ffffff; stroke-linejoin: miter"/>
   </g>
   <g id="patch_95">
    <path d="M 691.824793 320.4 
L 697.358678 320.4 
L 697.358678 266.510092 
L 691.824793 266.510092 
z
" clip-path="url(#p3f66a13b18)" style="fill: #4c72b0; stroke: #ffffff; stroke-linejoin: miter"/>
   </g>
   <g id="patch_96">
    <path d="M 697.358678 320.4 
L 702.892562 320.4 
L 702.892562 222.308257 
L 697.358678 222.308257 
z
" clip-path="url(#p3f66a13b18)" style="fill: #4c72b0; stroke: #ffffff; stroke-linejoin: miter"/>
   </g>
   <g id="patch_97">
    <path d="M 702.892562 320.4 
L 708.426446 320.4 
L 708.426446 276.198165 
L 702.892562 276.198165 
z
" clip-path="url(#p3f66a13b18)" style="fill: #4c72b0; stroke: #ffffff; stroke-linejoin: miter"/>
   </g>
   <g id="patch_98">
    <path d="M 708.426446 320.4 
L 713.960331 320.4 
L 713.960331 259.244037 
L 708.426446 259.244037 
z
" clip-path="url(#p3f66a13b18)" style="fill: #4c72b0; stroke: #ffffff; stroke-linejoin: miter"/>
   </g>
   <g id="patch_99">
    <path d="M 713.960331 320.4 
L 719.494215 320.4 
L 719.494215 306.473394 
L 713.960331 306.473394 
z
" clip-path="url(#p3f66a13b18)" style="fill: #4c72b0; stroke: #ffffff; stroke-linejoin: miter"/>
   </g>
   <g id="patch_100">
    <path d="M 719.494215 320.4 
L 725.028099 320.4 
L 725.028099 301.023853 
L 719.494215 301.023853 
z
" clip-path="url(#p3f66a13b18)" style="fill: #4c72b0; stroke: #ffffff; stroke-linejoin: miter"/>
   </g>
   <g id="patch_101">
    <path d="M 725.028099 320.4 
L 730.561983 320.4 
L 730.561983 306.473394 
L 725.028099 306.473394 
z
" clip-path="url(#p3f66a13b18)" style="fill: #4c72b0; stroke: #ffffff; stroke-linejoin: miter"/>
   </g>
   <g id="patch_102">
    <path d="M 730.561983 320.4 
L 736.095868 320.4 
L 736.095868 305.86789 
L 730.561983 305.86789 
z
" clip-path="url(#p3f66a13b18)" style="fill: #4c72b0; stroke: #ffffff; stroke-linejoin: miter"/>
   </g>
   <g id="patch_103">
    <path d="M 736.095868 320.4 
L 741.629752 320.4 
L 741.629752 301.629358 
L 736.095868 301.629358 
z
" clip-path="url(#p3f66a13b18)" style="fill: #4c72b0; stroke: #ffffff; stroke-linejoin: miter"/>
   </g>
   <g id="patch_104">
    <path d="M 741.629752 320.4 
L 747.163636 320.4 
L 747.163636 276.198165 
L 741.629752 276.198165 
z
" clip-path="url(#p3f66a13b18)" style="fill: #4c72b0; stroke: #ffffff; stroke-linejoin: miter"/>
   </g>
   <g id="patch_105">
    <path d="M 747.163636 320.4 
L 752.697521 320.4 
L 752.697521 287.702752 
L 747.163636 287.702752 
z
" clip-path="url(#p3f66a13b18)" style="fill: #4c72b0; stroke: #ffffff; stroke-linejoin: miter"/>
   </g>
   <g id="patch_106">
    <path d="M 752.697521 320.4 
L 758.231405 320.4 
L 758.231405 308.895413 
L 752.697521 308.895413 
z
" clip-path="url(#p3f66a13b18)" style="fill: #4c72b0; stroke: #ffffff; stroke-linejoin: miter"/>
   </g>
   <g id="patch_107">
    <path d="M 758.231405 320.4 
L 763.765289 320.4 
L 763.765289 318.583486 
L 758.231405 318.583486 
z
" clip-path="url(#p3f66a13b18)" style="fill: #4c72b0; stroke: #ffffff; stroke-linejoin: miter"/>
   </g>
   <g id="patch_108">
    <path d="M 473.236364 320.4 
L 473.236364 43.2 
" style="fill: none; stroke: #cccccc; stroke-width: 1.25; stroke-linejoin: miter; stroke-linecap: square"/>
   </g>
   <g id="patch_109">
    <path d="M 777.6 320.4 
L 777.6 43.2 
" style="fill: none; stroke: #cccccc; stroke-width: 1.25; stroke-linejoin: miter; stroke-linecap: square"/>
   </g>
   <g id="patch_110">
    <path d="M 473.236364 320.4 
L 777.6 320.4 
" style="fill: none; stroke: #cccccc; stroke-width: 1.25; stroke-linejoin: miter; stroke-linecap: square"/>
   </g>
   <g id="patch_111">
    <path d="M 473.236364 43.2 
L 777.6 43.2 
" style="fill: none; stroke: #cccccc; stroke-width: 1.25; stroke-linejoin: miter; stroke-linecap: square"/>
   </g>
   <g id="text_30">
    <!-- Power scalar distribution on Computer 2 - High settings -->
    <g style="fill: #262626" transform="translate(458.922869 37.2) scale(0.12 -0.12)">
     <defs>
      <path id="DejaVuSans-48" d="M 628 4666 
L 1259 4666 
L 1259 2753 
L 3553 2753 
L 3553 4666 
L 4184 4666 
L 4184 0 
L 3553 0 
L 3553 2222 
L 1259 2222 
L 1259 0 
L 628 0 
L 628 4666 
z
" transform="scale(0.015625)"/>
      <path id="DejaVuSans-68" d="M 3513 2113 
L 3513 0 
L 2938 0 
L 2938 2094 
Q 2938 2591 2744 2837 
Q 2550 3084 2163 3084 
Q 1697 3084 1428 2787 
Q 1159 2491 1159 1978 
L 1159 0 
L 581 0 
L 581 4863 
L 1159 4863 
L 1159 2956 
Q 1366 3272 1645 3428 
Q 1925 3584 2291 3584 
Q 2894 3584 3203 3211 
Q 3513 2838 3513 2113 
z
" transform="scale(0.015625)"/>
     </defs>
     <use xlink:href="#DejaVuSans-50"/>
     <use xlink:href="#DejaVuSans-6f" transform="translate(56.677734 0)"/>
     <use xlink:href="#DejaVuSans-77" transform="translate(117.859375 0)"/>
     <use xlink:href="#DejaVuSans-65" transform="translate(199.646484 0)"/>
     <use xlink:href="#DejaVuSans-72" transform="translate(261.169922 0)"/>
     <use xlink:href="#DejaVuSans-20" transform="translate(302.283203 0)"/>
     <use xlink:href="#DejaVuSans-73" transform="translate(334.070312 0)"/>
     <use xlink:href="#DejaVuSans-63" transform="translate(386.169922 0)"/>
     <use xlink:href="#DejaVuSans-61" transform="translate(441.150391 0)"/>
     <use xlink:href="#DejaVuSans-6c" transform="translate(502.429688 0)"/>
     <use xlink:href="#DejaVuSans-61" transform="translate(530.212891 0)"/>
     <use xlink:href="#DejaVuSans-72" transform="translate(591.492188 0)"/>
     <use xlink:href="#DejaVuSans-20" transform="translate(632.605469 0)"/>
     <use xlink:href="#DejaVuSans-64" transform="translate(664.392578 0)"/>
     <use xlink:href="#DejaVuSans-69" transform="translate(727.869141 0)"/>
     <use xlink:href="#DejaVuSans-73" transform="translate(755.652344 0)"/>
     <use xlink:href="#DejaVuSans-74" transform="translate(807.751953 0)"/>
     <use xlink:href="#DejaVuSans-72" transform="translate(846.960938 0)"/>
     <use xlink:href="#DejaVuSans-69" transform="translate(888.074219 0)"/>
     <use xlink:href="#DejaVuSans-62" transform="translate(915.857422 0)"/>
     <use xlink:href="#DejaVuSans-75" transform="translate(979.333984 0)"/>
     <use xlink:href="#DejaVuSans-74" transform="translate(1042.712891 0)"/>
     <use xlink:href="#DejaVuSans-69" transform="translate(1081.921875 0)"/>
     <use xlink:href="#DejaVuSans-6f" transform="translate(1109.705078 0)"/>
     <use xlink:href="#DejaVuSans-6e" transform="translate(1170.886719 0)"/>
     <use xlink:href="#DejaVuSans-20" transform="translate(1234.265625 0)"/>
     <use xlink:href="#DejaVuSans-6f" transform="translate(1266.052734 0)"/>
     <use xlink:href="#DejaVuSans-6e" transform="translate(1327.234375 0)"/>
     <use xlink:href="#DejaVuSans-20" transform="translate(1390.613281 0)"/>
     <use xlink:href="#DejaVuSans-43" transform="translate(1422.400391 0)"/>
     <use xlink:href="#DejaVuSans-6f" transform="translate(1492.224609 0)"/>
     <use xlink:href="#DejaVuSans-6d" transform="translate(1553.40625 0)"/>
     <use xlink:href="#DejaVuSans-70" transform="translate(1650.818359 0)"/>
     <use xlink:href="#DejaVuSans-75" transform="translate(1714.294922 0)"/>
     <use xlink:href="#DejaVuSans-74" transform="translate(1777.673828 0)"/>
     <use xlink:href="#DejaVuSans-65" transform="translate(1816.882812 0)"/>
     <use xlink:href="#DejaVuSans-72" transform="translate(1878.40625 0)"/>
     <use xlink:href="#DejaVuSans-20" transform="translate(1919.519531 0)"/>
     <use xlink:href="#DejaVuSans-32" transform="translate(1951.306641 0)"/>
     <use xlink:href="#DejaVuSans-20" transform="translate(2014.929688 0)"/>
     <use xlink:href="#DejaVuSans-2d" transform="translate(2046.716797 0)"/>
     <use xlink:href="#DejaVuSans-20" transform="translate(2082.800781 0)"/>
     <use xlink:href="#DejaVuSans-48" transform="translate(2114.587891 0)"/>
     <use xlink:href="#DejaVuSans-69" transform="translate(2189.783203 0)"/>
     <use xlink:href="#DejaVuSans-67" transform="translate(2217.566406 0)"/>
     <use xlink:href="#DejaVuSans-68" transform="translate(2281.042969 0)"/>
     <use xlink:href="#DejaVuSans-20" transform="translate(2344.421875 0)"/>
     <use xlink:href="#DejaVuSans-73" transform="translate(2376.208984 0)"/>
     <use xlink:href="#DejaVuSans-65" transform="translate(2428.308594 0)"/>
     <use xlink:href="#DejaVuSans-74" transform="translate(2489.832031 0)"/>
     <use xlink:href="#DejaVuSans-74" transform="translate(2529.041016 0)"/>
     <use xlink:href="#DejaVuSans-69" transform="translate(2568.25 0)"/>
     <use xlink:href="#DejaVuSans-6e" transform="translate(2596.033203 0)"/>
     <use xlink:href="#DejaVuSans-67" transform="translate(2659.412109 0)"/>
     <use xlink:href="#DejaVuSans-73" transform="translate(2722.888672 0)"/>
    </g>
   </g>
  </g>
 </g>
 <defs>
  <clipPath id="p4cbf788b9c">
   <rect x="108" y="43.2" width="304.363636" height="277.2"/>
  </clipPath>
  <clipPath id="p3f66a13b18">
   <rect x="473.236364" y="43.2" width="304.363636" height="277.2"/>
  </clipPath>
 </defs>
</svg>
