<svg xmlns="http://www.w3.org/2000/svg" width="900" height="500" viewBox="0 0 900 500">
<style>text{font-family:-apple-system,BlinkMacSystemFont,Segoe UI,Roboto,Helvetica,Arial,sans-serif;fill:#fff;stroke:#000;stroke-width:0.3px;paint-order:stroke fill;}.axis{stroke:#fff;stroke-width:1.5;}.grid{stroke:#666;stroke-width:1;}.violin{fill-opacity:0.6;stroke:#fff;stroke-width:1.5;}.median{stroke:#fff;stroke-width:2;}.quartile{stroke:#fff;stroke-width:1.5;}</style>
<rect width="900" height="500" fill="#1a1a1a"/>
<text x="450.0" y="28" text-anchor="middle" font-size="18" font-weight="600" fill="#fff">Energy distribution across measured runs (violin plot)</text>
<line class="axis" x1="80" y1="60" x2="80" y2="420"/>
<line class="axis" x1="80" y1="420" x2="860" y2="420"/>
<line class="grid" x1="80" y1="420.0" x2="860" y2="420.0"/>
<text x="70" y="424.0" text-anchor="end" font-size="11" fill="#fff">40.5</text>
<line class="grid" x1="80" y1="348.0" x2="860" y2="348.0"/>
<text x="70" y="352.0" text-anchor="end" font-size="11" fill="#fff">59.0</text>
<line class="grid" x1="80" y1="276.0" x2="860" y2="276.0"/>
<text x="70" y="280.0" text-anchor="end" font-size="11" fill="#fff">77.4</text>
<line class="grid" x1="80" y1="204.0" x2="860" y2="204.0"/>
<text x="70" y="208.0" text-anchor="end" font-size="11" fill="#fff">95.9</text>
<line class="grid" x1="80" y1="132.0" x2="860" y2="132.0"/>
<text x="70" y="136.0" text-anchor="end" font-size="11" fill="#fff">114.3</text>
<line class="grid" x1="80" y1="60.0" x2="860" y2="60.0"/>
<text x="70" y="64.0" text-anchor="end" font-size="11" fill="#fff">132.8</text>
<text x="20" y="240.0" transform="rotate(-90 20 240.0)" text-anchor="middle" font-size="13" font-weight="500" fill="#fff">Package energy (J)</text>
<path class="violin" d="M 177.5 420.0 L 177.4 420.0 L 177.3 415.4 L 177.1 410.9 L 176.7 406.3 L 176.0 401.8 L 174.8 397.2 L 173.0 392.7 L 170.3 388.1 L 166.7 383.5 L 162.2 379.0 L 157.0 374.4 L 151.5 369.9 L 146.3 365.3 L 142.2 360.8 L 139.4 356.2 L 138.5 351.6 L 139.3 347.1 L 141.7 342.5 L 145.1 338.0 L 149.2 333.4 L 153.6 328.9 L 158.0 324.3 L 162.0 319.7 L 165.8 315.2 L 169.0 310.6 L 171.6 306.1 L 173.7 301.5 L 175.2 297.0 L 176.2 292.4 L 176.8 287.8 L 177.2 283.3 L 177.4 278.7 L 177.4 274.2 L 177.5 269.6 L 177.5 265.1 L 177.5 260.5 L 177.5 255.9 L 177.5 251.4 L 177.5 246.8 L 177.5 242.3 L 177.5 237.7 L 177.5 233.2 L 177.5 228.6 L 177.5 224.1 L 177.5 219.5 L 177.5 214.9 L 177.5 210.4 L 177.5 205.8 L 177.5 201.3 L 177.5 196.7 L 177.5 192.2 L 177.5 187.6 L 177.5 183.0 L 177.5 178.5 L 177.5 173.9 L 177.5 169.4 L 177.5 164.8 L 177.5 160.3 L 177.5 155.7 L 177.5 151.1 L 177.5 146.6 L 177.5 142.0 L 177.5 137.5 L 177.5 132.9 L 177.5 128.4 L 177.5 123.8 L 177.5 119.2 L 177.5 114.7 L 177.5 110.1 L 177.5 105.6 L 177.5 101.0 L 177.5 96.5 L 177.5 91.9 L 177.5 87.3 L 177.5 82.8 L 177.5 78.2 L 177.5 73.7 L 177.5 69.1 L 177.5 64.6 L 177.5 60.0 L 177.5 60.0 L 177.5 64.6 L 177.5 69.1 L 177.5 73.7 L 177.5 78.2 L 177.5 82.8 L 177.5 87.3 L 177.5 91.9 L 177.5 96.5 L 177.5 101.0 L 177.5 105.6 L 177.5 110.1 L 177.5 114.7 L 177.5 119.2 L 177.5 123.8 L 177.5 128.4 L 177.5 132.9 L 177.5 137.5 L 177.5 142.0 L 177.5 146.6 L 177.5 151.1 L 177.5 155.7 L 177.5 160.3 L 177.5 164.8 L 177.5 169.4 L 177.5 173.9 L 177.5 178.5 L 177.5 183.0 L 177.5 187.6 L 177.5 192.2 L 177.5 196.7 L 177.5 201.3 L 177.5 205.8 L 177.5 210.4 L 177.5 214.9 L 177.5 219.5 L 177.5 224.1 L 177.5 228.6 L 177.5 233.2 L 177.5 237.7 L 177.5 242.3 L 177.5 246.8 L 177.5 251.4 L 177.5 255.9 L 177.5 260.5 L 177.5 265.1 L 177.5 269.6 L 177.6 274.2 L 177.6 278.7 L 177.8 283.3 L 178.2 287.8 L 178.8 292.4 L 179.8 297.0 L 181.3 301.5 L 183.4 306.1 L 186.0 310.6 L 189.2 315.2 L 193.0 319.7 L 197.0 324.3 L 201.4 328.9 L 205.8 333.4 L 209.9 338.0 L 213.3 342.5 L 215.7 347.1 L 216.5 351.6 L 215.6 356.2 L 212.8 360.8 L 208.7 365.3 L 203.5 369.9 L 198.0 374.4 L 192.8 379.0 L 188.3 383.5 L 184.7 388.1 L 182.0 392.7 L 180.2 397.2 L 179.0 401.8 L 178.3 406.3 L 177.9 410.9 L 177.7 415.4 L 177.6 420.0 Z" fill="#2ca02c"/>
<line class="median" x1="130.7" y1="349.3" x2="224.3" y2="349.3"/>
<rect x="154.1" y="339.0" width="46.8" height="19.3" fill="none" class="quartile"/>
<line class="quartile" x1="177.5" y1="378.5" x2="177.5" y2="319.1"/>
<line class="quartile" x1="161.9" y1="378.5" x2="193.1" y2="378.5"/>
<line class="quartile" x1="161.9" y1="319.1" x2="193.1" y2="319.1"/>
<text x="177.5" y="448" text-anchor="middle" font-size="13" font-weight="500" fill="#fff">Rust</text>
<path class="violin" d="M 372.5 420.0 L 372.5 420.0 L 372.4 415.4 L 372.4 410.9 L 372.3 406.3 L 372.0 401.8 L 371.6 397.2 L 371.0 392.7 L 370.0 388.1 L 368.5 383.5 L 366.4 379.0 L 363.5 374.4 L 359.9 369.9 L 355.6 365.3 L 350.8 360.8 L 345.8 356.2 L 341.1 351.6 L 337.1 347.1 L 334.5 342.5 L 333.5 338.0 L 334.3 333.4 L 336.8 328.9 L 340.7 324.3 L 345.3 319.7 L 350.3 315.2 L 355.1 310.6 L 359.3 306.1 L 362.7 301.5 L 365.2 297.0 L 367.0 292.4 L 368.2 287.8 L 368.9 283.3 L 369.3 278.7 L 369.6 274.2 L 369.8 269.6 L 370.1 265.1 L 370.5 260.5 L 370.9 255.9 L 371.3 251.4 L 371.6 246.8 L 371.9 242.3 L 372.1 237.7 L 372.3 233.2 L 372.4 228.6 L 372.4 224.1 L 372.5 219.5 L 372.5 214.9 L 372.5 210.4 L 372.5 205.8 L 372.5 201.3 L 372.5 196.7 L 372.5 192.2 L 372.5 187.6 L 372.5 183.0 L 372.5 178.5 L 372.5 173.9 L 372.5 169.4 L 372.5 164.8 L 372.5 160.3 L 372.5 155.7 L 372.5 151.1 L 372.5 146.6 L 372.5 142.0 L 372.5 137.5 L 372.5 132.9 L 372.5 128.4 L 372.5 123.8 L 372.5 119.2 L 372.5 114.7 L 372.5 110.1 L 372.5 105.6 L 372.5 101.0 L 372.5 96.5 L 372.5 91.9 L 372.5 87.3 L 372.5 82.8 L 372.5 78.2 L 372.5 73.7 L 372.5 69.1 L 372.5 64.6 L 372.5 60.0 L 372.5 60.0 L 372.5 64.6 L 372.5 69.1 L 372.5 73.7 L 372.5 78.2 L 372.5 82.8 L 372.5 87.3 L 372.5 91.9 L 372.5 96.5 L 372.5 101.0 L 372.5 105.6 L 372.5 110.1 L 372.5 114.7 L 372.5 119.2 L 372.5 123.8 L 372.5 128.4 L 372.5 132.9 L 372.5 137.5 L 372.5 142.0 L 372.5 146.6 L 372.5 151.1 L 372.5 155.7 L 372.5 160.3 L 372.5 164.8 L 372.5 169.4 L 372.5 173.9 L 372.5 178.5 L 372.5 183.0 L 372.5 187.6 L 372.5 192.2 L 372.5 196.7 L 372.5 201.3 L 372.5 205.8 L 372.5 210.4 L 372.5 214.9 L 372.5 219.5 L 372.6 224.1 L 372.6 228.6 L 372.7 233.2 L 372.9 237.7 L 373.1 242.3 L 373.4 246.8 L 373.7 251.4 L 374.1 255.9 L 374.5 260.5 L 374.9 265.1 L 375.2 269.6 L 375.4 274.2 L 375.7 278.7 L 376.1 283.3 L 376.8 287.8 L 378.0 292.4 L 379.8 297.0 L 382.3 301.5 L 385.7 306.1 L 389.9 310.6 L 394.7 315.2 L 399.7 319.7 L 404.3 324.3 L 408.2 328.9 L 410.7 333.4 L 411.5 338.0 L 410.5 342.5 L 407.9 347.1 L 403.9 351.6 L 399.2 356.2 L 394.2 360.8 L 389.4 365.3 L 385.1 369.9 L 381.5 374.4 L 378.6 379.0 L 376.5 383.5 L 375.0 388.1 L 374.0 392.7 L 373.4 397.2 L 373.0 401.8 L 372.7 406.3 L 372.6 410.9 L 372.6 415.4 L 372.5 420.0 Z" fill="#1f77b4"/>
<line class="median" x1="325.7" y1="336.7" x2="419.3" y2="336.7"/>
<rect x="349.1" y="328.6" width="46.8" height="16.1" fill="none" class="quartile"/>
<line class="quartile" x1="372.5" y1="361.7" x2="372.5" y2="272.4"/>
<line class="quartile" x1="356.9" y1="361.7" x2="388.1" y2="361.7"/>
<line class="quartile" x1="356.9" y1="272.4" x2="388.1" y2="272.4"/>
<text x="372.5" y="448" text-anchor="middle" font-size="13" font-weight="500" fill="#fff">Python</text>
<path class="violin" d="M 567.5 420.0 L 567.5 420.0 L 567.5 415.4 L 567.5 410.9 L 567.5 406.3 L 567.5 401.8 L 567.5 397.2 L 567.5 392.7 L 567.5 388.1 L 567.5 383.5 L 567.5 379.0 L 567.5 374.4 L 567.5 369.9 L 567.5 365.3 L 567.5 360.8 L 567.5 356.2 L 567.5 351.6 L 567.5 347.1 L 567.5 342.5 L 567.5 338.0 L 567.5 333.4 L 567.5 328.9 L 567.5 324.3 L 567.5 319.7 L 567.5 315.2 L 567.4 310.6 L 567.4 306.1 L 567.3 301.5 L 567.2 297.0 L 567.0 292.4 L 566.8 287.8 L 566.5 283.3 L 566.0 278.7 L 565.4 274.2 L 564.6 269.6 L 563.5 265.1 L 562.2 260.5 L 560.6 255.9 L 558.8 251.4 L 556.6 246.8 L 554.2 242.3 L 551.6 237.7 L 548.8 233.2 L 545.8 228.6 L 542.9 224.1 L 540.1 219.5 L 537.4 214.9 L 535.0 210.4 L 532.9 205.8 L 531.2 201.3 L 529.8 196.7 L 529.0 192.2 L 528.5 187.6 L 528.5 183.0 L 528.9 178.5 L 529.6 173.9 L 530.6 169.4 L 532.0 164.8 L 533.6 160.3 L 535.4 155.7 L 537.4 151.1 L 539.6 146.6 L 541.9 142.0 L 544.3 137.5 L 546.7 132.9 L 549.1 128.4 L 551.5 123.8 L 553.8 119.2 L 556.0 114.7 L 558.0 110.1 L 559.8 105.6 L 561.4 101.0 L 562.7 96.5 L 563.8 91.9 L 564.8 87.3 L 565.5 82.8 L 566.1 78.2 L 566.5 73.7 L 566.8 69.1 L 567.0 64.6 L 567.2 60.0 L 567.8 60.0 L 568.0 64.6 L 568.2 69.1 L 568.5 73.7 L 568.9 78.2 L 569.5 82.8 L 570.2 87.3 L 571.2 91.9 L 572.3 96.5 L 573.6 101.0 L 575.2 105.6 L 577.0 110.1 L 579.0 114.7 L 581.2 119.2 L 583.5 123.8 L 585.9 128.4 L 588.3 132.9 L 590.7 137.5 L 593.1 142.0 L 595.4 146.6 L 597.6 151.1 L 599.6 155.7 L 601.4 160.3 L 603.0 164.8 L 604.4 169.4 L 605.4 173.9 L 606.1 178.5 L 606.5 183.0 L 606.5 187.6 L 606.0 192.2 L 605.2 196.7 L 603.8 201.3 L 602.1 205.8 L 600.0 210.4 L 597.6 214.9 L 594.9 219.5 L 592.1 224.1 L 589.2 228.6 L 586.2 233.2 L 583.4 237.7 L 580.8 242.3 L 578.4 246.8 L 576.2 251.4 L 574.4 255.9 L 572.8 260.5 L 571.5 265.1 L 570.4 269.6 L 569.6 274.2 L 569.0 278.7 L 568.5 283.3 L 568.2 287.8 L 568.0 292.4 L 567.8 297.0 L 567.7 301.5 L 567.6 306.1 L 567.6 310.6 L 567.5 315.2 L 567.5 319.7 L 567.5 324.3 L 567.5 328.9 L 567.5 333.4 L 567.5 338.0 L 567.5 342.5 L 567.5 347.1 L 567.5 351.6 L 567.5 356.2 L 567.5 360.8 L 567.5 365.3 L 567.5 369.9 L 567.5 374.4 L 567.5 379.0 L 567.5 383.5 L 567.5 388.1 L 567.5 392.7 L 567.5 397.2 L 567.5 401.8 L 567.5 406.3 L 567.5 410.9 L 567.5 415.4 L 567.5 420.0 Z" fill="#ff7f0e"/>
<line class="median" x1="520.7" y1="180.5" x2="614.3" y2="180.5"/>
<rect x="544.1" y="148.0" width="46.8" height="55.2" fill="none" class="quartile"/>
<line class="quartile" x1="567.5" y1="227.1" x2="567.5" y2="128.3"/>
<line class="quartile" x1="551.9" y1="227.1" x2="583.1" y2="227.1"/>
<line class="quartile" x1="551.9" y1="128.3" x2="583.1" y2="128.3"/>
<text x="567.5" y="448" text-anchor="middle" font-size="13" font-weight="500" fill="#fff">Go</text>
<path class="violin" d="M 762.5 420.0 L 762.5 420.0 L 762.5 415.4 L 762.5 410.9 L 762.5 406.3 L 762.5 401.8 L 762.5 397.2 L 762.5 392.7 L 762.5 388.1 L 762.5 383.5 L 762.5 379.0 L 762.5 374.4 L 762.5 369.9 L 762.5 365.3 L 762.5 360.8 L 762.5 356.2 L 762.5 351.6 L 762.5 347.1 L 762.5 342.5 L 762.5 338.0 L 762.5 333.4 L 762.5 328.9 L 762.5 324.3 L 762.5 319.7 L 762.5 315.2 L 762.5 310.6 L 762.5 306.1 L 762.5 301.5 L 762.5 297.0 L 762.5 292.4 L 762.5 287.8 L 762.5 283.3 L 762.5 278.7 L 762.5 274.2 L 762.5 269.6 L 762.5 265.1 L 762.5 260.5 L 762.5 255.9 L 762.5 251.4 L 762.5 246.8 L 762.5 242.3 L 762.5 237.7 L 762.5 233.2 L 762.5 228.6 L 762.5 224.1 L 762.5 219.5 L 762.5 214.9 L 762.5 210.4 L 762.5 205.8 L 762.5 201.3 L 762.5 196.7 L 762.4 192.2 L 762.3 187.6 L 761.9 183.0 L 761.3 178.5 L 760.0 173.9 L 757.7 169.4 L 754.3 164.8 L 749.6 160.3 L 743.8 155.7 L 737.6 151.1 L 731.7 146.6 L 727.1 142.0 L 724.3 137.5 L 723.5 132.9 L 724.5 128.4 L 727.0 123.8 L 730.3 119.2 L 734.2 114.7 L 738.5 110.1 L 742.9 105.6 L 747.3 101.0 L 751.4 96.5 L 754.9 91.9 L 757.7 87.3 L 759.7 82.8 L 761.0 78.2 L 761.7 73.7 L 762.2 69.1 L 762.4 64.6 L 762.4 60.0 L 762.6 60.0 L 762.6 64.6 L 762.8 69.1 L 763.3 73.7 L 764.0 78.2 L 765.3 82.8 L 767.3 87.3 L 770.1 91.9 L 773.6 96.5 L 777.7 101.0 L 782.1 105.6 L 786.5 110.1 L 790.8 114.7 L 794.7 119.2 L 798.0 123.8 L 800.5 128.4 L 801.5 132.9 L 800.7 137.5 L 797.9 142.0 L 793.3 146.6 L 787.4 151.1 L 781.2 155.7 L 775.4 160.3 L 770.7 164.8 L 767.3 169.4 L 765.0 173.9 L 763.7 178.5 L 763.1 183.0 L 762.7 187.6 L 762.6 192.2 L 762.5 196.7 L 762.5 201.3 L 762.5 205.8 L 762.5 210.4 L 762.5 214.9 L 762.5 219.5 L 762.5 224.1 L 762.5 228.6 L 762.5 233.2 L 762.5 237.7 L 762.5 242.3 L 762.5 246.8 L 762.5 251.4 L 762.5 255.9 L 762.5 260.5 L 762.5 265.1 L 762.5 269.6 L 762.5 274.2 L 762.5 278.7 L 762.5 283.3 L 762.5 287.8 L 762.5 292.4 L 762.5 297.0 L 762.5 301.5 L 762.5 306.1 L 762.5 310.6 L 762.5 315.2 L 762.5 319.7 L 762.5 324.3 L 762.5 328.9 L 762.5 333.4 L 762.5 338.0 L 762.5 342.5 L 762.5 347.1 L 762.5 351.6 L 762.5 356.2 L 762.5 360.8 L 762.5 365.3 L 762.5 369.9 L 762.5 374.4 L 762.5 379.0 L 762.5 383.5 L 762.5 388.1 L 762.5 392.7 L 762.5 397.2 L 762.5 401.8 L 762.5 406.3 L 762.5 410.9 L 762.5 415.4 L 762.5 420.0 Z" fill="#d62728"/>
<line class="median" x1="715.7" y1="130.9" x2="809.3" y2="130.9"/>
<rect x="739.1" y="117.5" width="46.8" height="23.1" fill="none" class="quartile"/>
<line class="quartile" x1="762.5" y1="150.3" x2="762.5" y2="101.5"/>
<line class="quartile" x1="746.9" y1="150.3" x2="778.1" y2="150.3"/>
<line class="quartile" x1="746.9" y1="101.5" x2="778.1" y2="101.5"/>
<text x="762.5" y="448" text-anchor="middle" font-size="13" font-weight="500" fill="#fff">Java</text>
<rect x="715" y="65" width="130" height="78" fill="#2a2a2a" opacity="0.9" rx="3"/>
<rect x="720" y="61" width="10" height="10" fill="#2ca02c"/>
<text x="736" y="70" font-size="12" fill="#fff">Rust</text>
<rect x="720" y="79" width="10" height="10" fill="#1f77b4"/>
<text x="736" y="88" font-size="12" fill="#fff">Python</text>
<rect x="720" y="97" width="10" height="10" fill="#ff7f0e"/>
<text x="736" y="106" font-size="12" fill="#fff">Go</text>
<rect x="720" y="115" width="10" height="10" fill="#d62728"/>
<text x="736" y="124" font-size="12" fill="#fff">Java</text>
</svg>