<svg xmlns="http://www.w3.org/2000/svg" width="820" height="440" viewBox="0 0 820 440">
<style>text{font-family: -apple-system, BlinkMacSystemFont, Segoe UI, Roboto, Helvetica, Arial, sans-serif; fill:#111;} .axis{stroke:#333;stroke-width:1;} .grid{stroke:#ddd;stroke-width:1;} </style>
<text x="410.0" y="24" text-anchor="middle" font-size="16" font-weight="600">Energy vs time per run (package energy)</text>
<line class="axis" x1="70" y1="40" x2="70" y2="380"/>
<line class="axis" x1="70" y1="380" x2="800" y2="380"/>
<line class="grid" x1="70.0" y1="40" x2="70.0" y2="380"/>
<text x="70.0" y="402" text-anchor="middle" font-size="11">3.4</text>
<line class="grid" x1="216.0" y1="40" x2="216.0" y2="380"/>
<text x="216.0" y="402" text-anchor="middle" font-size="11">4.7</text>
<line class="grid" x1="362.0" y1="40" x2="362.0" y2="380"/>
<text x="362.0" y="402" text-anchor="middle" font-size="11">6.0</text>
<line class="grid" x1="508.0" y1="40" x2="508.0" y2="380"/>
<text x="508.0" y="402" text-anchor="middle" font-size="11">7.3</text>
<line class="grid" x1="654.0" y1="40" x2="654.0" y2="380"/>
<text x="654.0" y="402" text-anchor="middle" font-size="11">8.6</text>
<line class="grid" x1="800.0" y1="40" x2="800.0" y2="380"/>
<text x="800.0" y="402" text-anchor="middle" font-size="11">9.9</text>
<line class="grid" x1="70" y1="380.0" x2="800" y2="380.0"/>
<text x="62" y="384.0" text-anchor="end" font-size="11">49</text>
<line class="grid" x1="70" y1="312.0" x2="800" y2="312.0"/>
<text x="62" y="316.0" text-anchor="end" font-size="11">65</text>
<line class="grid" x1="70" y1="244.0" x2="800" y2="244.0"/>
<text x="62" y="248.0" text-anchor="end" font-size="11">80</text>
<line class="grid" x1="70" y1="176.0" x2="800" y2="176.0"/>
<text x="62" y="180.0" text-anchor="end" font-size="11">96</text>
<line class="grid" x1="70" y1="108.0" x2="800" y2="108.0"/>
<text x="62" y="112.0" text-anchor="end" font-size="11">112</text>
<line class="grid" x1="70" y1="40.0" x2="800" y2="40.0"/>
<text x="62" y="44.0" text-anchor="end" font-size="11">128</text>
<text x="435.0" y="422" text-anchor="middle" font-size="12">Wall time (s)</text>
<text x="18" y="210.0" transform="rotate(-90 18 210.0)" text-anchor="middle" font-size="12">Energy (J)</text>
<circle cx="679.1" cy="196.1" r="3.2" fill="#ff7f0e" fill-opacity="0.85"/>
<circle cx="724.3" cy="203.4" r="3.2" fill="#ff7f0e" fill-opacity="0.85"/>
<circle cx="611.1" cy="158.1" r="3.2" fill="#ff7f0e" fill-opacity="0.85"/>
<circle cx="611.0" cy="146.5" r="3.2" fill="#ff7f0e" fill-opacity="0.85"/>
<circle cx="611.1" cy="114.8" r="3.2" fill="#ff7f0e" fill-opacity="0.85"/>
<circle cx="724.2" cy="177.2" r="3.2" fill="#ff7f0e" fill-opacity="0.85"/>
<circle cx="611.1" cy="114.4" r="3.2" fill="#ff7f0e" fill-opacity="0.85"/>
<circle cx="701.6" cy="164.2" r="3.2" fill="#ff7f0e" fill-opacity="0.85"/>
<circle cx="656.2" cy="171.6" r="3.2" fill="#ff7f0e" fill-opacity="0.85"/>
<circle cx="633.7" cy="116.9" r="3.2" fill="#ff7f0e" fill-opacity="0.85"/>
<circle cx="746.8" cy="187.8" r="3.2" fill="#ff7f0e" fill-opacity="0.85"/>
<circle cx="611.1" cy="145.0" r="3.2" fill="#ff7f0e" fill-opacity="0.85"/>
<circle cx="656.4" cy="95.4" r="3.2" fill="#ff7f0e" fill-opacity="0.85"/>
<circle cx="565.7" cy="105.8" r="3.2" fill="#ff7f0e" fill-opacity="0.85"/>
<circle cx="656.7" cy="146.8" r="3.2" fill="#ff7f0e" fill-opacity="0.85"/>
<circle cx="678.9" cy="177.2" r="3.2" fill="#ff7f0e" fill-opacity="0.85"/>
<circle cx="611.1" cy="136.6" r="3.2" fill="#ff7f0e" fill-opacity="0.85"/>
<circle cx="678.9" cy="184.3" r="3.2" fill="#ff7f0e" fill-opacity="0.85"/>
<circle cx="678.9" cy="171.3" r="3.2" fill="#ff7f0e" fill-opacity="0.85"/>
<circle cx="611.1" cy="138.7" r="3.2" fill="#ff7f0e" fill-opacity="0.85"/>
<circle cx="316.8" cy="74.9" r="3.2" fill="#d62728" fill-opacity="0.85"/>
<circle cx="339.5" cy="90.0" r="3.2" fill="#d62728" fill-opacity="0.85"/>
<circle cx="339.5" cy="117.6" r="3.2" fill="#d62728" fill-opacity="0.85"/>
<circle cx="339.5" cy="112.7" r="3.2" fill="#d62728" fill-opacity="0.85"/>
<circle cx="339.5" cy="106.6" r="3.2" fill="#d62728" fill-opacity="0.85"/>
<circle cx="362.1" cy="77.3" r="3.2" fill="#d62728" fill-opacity="0.85"/>
<circle cx="362.1" cy="92.0" r="3.2" fill="#d62728" fill-opacity="0.85"/>
<circle cx="362.2" cy="83.5" r="3.2" fill="#d62728" fill-opacity="0.85"/>
<circle cx="362.1" cy="66.1" r="3.2" fill="#d62728" fill-opacity="0.85"/>
<circle cx="362.1" cy="73.2" r="3.2" fill="#d62728" fill-opacity="0.85"/>
<circle cx="362.1" cy="119.4" r="3.2" fill="#d62728" fill-opacity="0.85"/>
<circle cx="339.5" cy="86.5" r="3.2" fill="#d62728" fill-opacity="0.85"/>
<circle cx="362.2" cy="97.3" r="3.2" fill="#d62728" fill-opacity="0.85"/>
<circle cx="339.5" cy="108.8" r="3.2" fill="#d62728" fill-opacity="0.85"/>
<circle cx="339.5" cy="97.9" r="3.2" fill="#d62728" fill-opacity="0.85"/>
<circle cx="339.5" cy="98.4" r="3.2" fill="#d62728" fill-opacity="0.85"/>
<circle cx="362.1" cy="110.5" r="3.2" fill="#d62728" fill-opacity="0.85"/>
<circle cx="339.5" cy="107.7" r="3.2" fill="#d62728" fill-opacity="0.85"/>
<circle cx="339.5" cy="109.0" r="3.2" fill="#d62728" fill-opacity="0.85"/>
<circle cx="362.1" cy="105.6" r="3.2" fill="#d62728" fill-opacity="0.85"/>
<circle cx="113.2" cy="328.5" r="3.2" fill="#1f77b4" fill-opacity="0.85"/>
<circle cx="113.1" cy="334.2" r="3.2" fill="#1f77b4" fill-opacity="0.85"/>
<circle cx="113.2" cy="327.8" r="3.2" fill="#1f77b4" fill-opacity="0.85"/>
<circle cx="113.1" cy="347.3" r="3.2" fill="#1f77b4" fill-opacity="0.85"/>
<circle cx="113.2" cy="307.4" r="3.2" fill="#1f77b4" fill-opacity="0.85"/>
<circle cx="135.7" cy="314.5" r="3.2" fill="#1f77b4" fill-opacity="0.85"/>
<circle cx="113.1" cy="295.5" r="3.2" fill="#1f77b4" fill-opacity="0.85"/>
<circle cx="113.1" cy="315.9" r="3.2" fill="#1f77b4" fill-opacity="0.85"/>
<circle cx="135.8" cy="325.7" r="3.2" fill="#1f77b4" fill-opacity="0.85"/>
<circle cx="135.8" cy="322.8" r="3.2" fill="#1f77b4" fill-opacity="0.85"/>
<circle cx="135.7" cy="320.1" r="3.2" fill="#1f77b4" fill-opacity="0.85"/>
<circle cx="135.8" cy="320.5" r="3.2" fill="#1f77b4" fill-opacity="0.85"/>
<circle cx="158.5" cy="253.1" r="3.2" fill="#1f77b4" fill-opacity="0.85"/>
<circle cx="158.4" cy="350.7" r="3.2" fill="#1f77b4" fill-opacity="0.85"/>
<circle cx="135.8" cy="323.3" r="3.2" fill="#1f77b4" fill-opacity="0.85"/>
<circle cx="113.2" cy="332.7" r="3.2" fill="#1f77b4" fill-opacity="0.85"/>
<circle cx="113.1" cy="312.5" r="3.2" fill="#1f77b4" fill-opacity="0.85"/>
<circle cx="113.1" cy="323.6" r="3.2" fill="#1f77b4" fill-opacity="0.85"/>
<circle cx="113.1" cy="332.1" r="3.2" fill="#1f77b4" fill-opacity="0.85"/>
<circle cx="113.1" cy="332.0" r="3.2" fill="#1f77b4" fill-opacity="0.85"/>
<circle cx="90.5" cy="351.8" r="3.2" fill="#2ca02c" fill-opacity="0.85"/>
<circle cx="113.1" cy="322.6" r="3.2" fill="#2ca02c" fill-opacity="0.85"/>
<circle cx="90.5" cy="356.0" r="3.2" fill="#2ca02c" fill-opacity="0.85"/>
<circle cx="113.2" cy="369.1" r="3.2" fill="#2ca02c" fill-opacity="0.85"/>
<circle cx="113.1" cy="345.9" r="3.2" fill="#2ca02c" fill-opacity="0.85"/>
<circle cx="113.2" cy="328.6" r="3.2" fill="#2ca02c" fill-opacity="0.85"/>
<circle cx="113.1" cy="337.0" r="3.2" fill="#2ca02c" fill-opacity="0.85"/>
<circle cx="113.2" cy="336.5" r="3.2" fill="#2ca02c" fill-opacity="0.85"/>
<circle cx="90.5" cy="326.8" r="3.2" fill="#2ca02c" fill-opacity="0.85"/>
<circle cx="90.4" cy="337.3" r="3.2" fill="#2ca02c" fill-opacity="0.85"/>
<circle cx="113.1" cy="304.1" r="3.2" fill="#2ca02c" fill-opacity="0.85"/>
<circle cx="90.5" cy="307.1" r="3.2" fill="#2ca02c" fill-opacity="0.85"/>
<circle cx="113.2" cy="313.6" r="3.2" fill="#2ca02c" fill-opacity="0.85"/>
<circle cx="90.5" cy="346.0" r="3.2" fill="#2ca02c" fill-opacity="0.85"/>
<circle cx="90.6" cy="345.5" r="3.2" fill="#2ca02c" fill-opacity="0.85"/>
<circle cx="90.5" cy="353.9" r="3.2" fill="#2ca02c" fill-opacity="0.85"/>
<circle cx="113.1" cy="325.9" r="3.2" fill="#2ca02c" fill-opacity="0.85"/>
<circle cx="90.5" cy="350.7" r="3.2" fill="#2ca02c" fill-opacity="0.85"/>
<circle cx="90.5" cy="333.0" r="3.2" fill="#2ca02c" fill-opacity="0.85"/>
<circle cx="90.5" cy="347.0" r="3.2" fill="#2ca02c" fill-opacity="0.85"/>
<rect x="660" y="40" width="10" height="10" fill="#2ca02c"/>
<text x="676" y="49" font-size="12">Rust</text>
<rect x="660" y="58" width="10" height="10" fill="#1f77b4"/>
<text x="676" y="67" font-size="12">Python</text>
<rect x="660" y="76" width="10" height="10" fill="#ff7f0e"/>
<text x="676" y="85" font-size="12">Go</text>
<rect x="660" y="94" width="10" height="10" fill="#d62728"/>
<text x="676" y="103" font-size="12">Java</text>
</svg>