<svg xmlns="http://www.w3.org/2000/svg" width="900" height="500" viewBox="0 0 900 500">
<style>text{font-family:-apple-system,BlinkMacSystemFont,Segoe UI,Roboto,Helvetica,Arial,sans-serif;fill:#fff;stroke:#000;stroke-width:0.3px;paint-order:stroke fill;}.axis{stroke:#fff;stroke-width:1.5;}.grid{stroke:#666;stroke-width:1;}.violin{fill-opacity:0.6;stroke:#fff;stroke-width:1.5;}.median{stroke:#fff;stroke-width:2;}.quartile{stroke:#fff;stroke-width:1.5;}</style>
<rect width="900" height="500" fill="#1a1a1a"/>
<text x="450.0" y="28" text-anchor="middle" font-size="18" font-weight="600" fill="#fff">Time distribution across measured runs (violin plot)</text>
<line class="axis" x1="80" y1="60" x2="80" y2="420"/>
<line class="axis" x1="80" y1="420" x2="860" y2="420"/>
<line class="grid" x1="80" y1="420.0" x2="860" y2="420.0"/>
<text x="70" y="424.0" text-anchor="end" font-size="11" fill="#fff">2.7</text>
<line class="grid" x1="80" y1="348.0" x2="860" y2="348.0"/>
<text x="70" y="352.0" text-anchor="end" font-size="11" fill="#fff">4.2</text>
<line class="grid" x1="80" y1="276.0" x2="860" y2="276.0"/>
<text x="70" y="280.0" text-anchor="end" font-size="11" fill="#fff">5.7</text>
<line class="grid" x1="80" y1="204.0" x2="860" y2="204.0"/>
<text x="70" y="208.0" text-anchor="end" font-size="11" fill="#fff">7.3</text>
<line class="grid" x1="80" y1="132.0" x2="860" y2="132.0"/>
<text x="70" y="136.0" text-anchor="end" font-size="11" fill="#fff">8.8</text>
<line class="grid" x1="80" y1="60.0" x2="860" y2="60.0"/>
<text x="70" y="64.0" text-anchor="end" font-size="11" fill="#fff">10.3</text>
<text x="20" y="240.0" transform="rotate(-90 20 240.0)" text-anchor="middle" font-size="13" font-weight="500" fill="#fff">Wall time (s)</text>
<path class="violin" d="M 177.5 420.0 L 177.5 420.0 L 177.5 415.4 L 177.5 410.9 L 177.5 406.3 L 177.5 401.8 L 177.5 397.2 L 177.1 392.7 L 173.1 388.1 L 157.7 383.5 L 139.8 379.0 L 138.5 374.4 L 142.6 369.9 L 155.0 365.3 L 170.7 360.8 L 176.7 356.2 L 177.5 351.6 L 177.5 347.1 L 177.5 342.5 L 177.5 338.0 L 177.5 333.4 L 177.5 328.9 L 177.5 324.3 L 177.5 319.7 L 177.5 315.2 L 177.5 310.6 L 177.5 306.1 L 177.5 301.5 L 177.5 297.0 L 177.5 292.4 L 177.5 287.8 L 177.5 283.3 L 177.5 278.7 L 177.5 274.2 L 177.5 269.6 L 177.5 265.1 L 177.5 260.5 L 177.5 255.9 L 177.5 251.4 L 177.5 246.8 L 177.5 242.3 L 177.5 237.7 L 177.5 233.2 L 177.5 228.6 L 177.5 224.1 L 177.5 219.5 L 177.5 214.9 L 177.5 210.4 L 177.5 205.8 L 177.5 201.3 L 177.5 196.7 L 177.5 192.2 L 177.5 187.6 L 177.5 183.0 L 177.5 178.5 L 177.5 173.9 L 177.5 169.4 L 177.5 164.8 L 177.5 160.3 L 177.5 155.7 L 177.5 151.1 L 177.5 146.6 L 177.5 142.0 L 177.5 137.5 L 177.5 132.9 L 177.5 128.4 L 177.5 123.8 L 177.5 119.2 L 177.5 114.7 L 177.5 110.1 L 177.5 105.6 L 177.5 101.0 L 177.5 96.5 L 177.5 91.9 L 177.5 87.3 L 177.5 82.8 L 177.5 78.2 L 177.5 73.7 L 177.5 69.1 L 177.5 64.6 L 177.5 60.0 L 177.5 60.0 L 177.5 64.6 L 177.5 69.1 L 177.5 73.7 L 177.5 78.2 L 177.5 82.8 L 177.5 87.3 L 177.5 91.9 L 177.5 96.5 L 177.5 101.0 L 177.5 105.6 L 177.5 110.1 L 177.5 114.7 L 177.5 119.2 L 177.5 123.8 L 177.5 128.4 L 177.5 132.9 L 177.5 137.5 L 177.5 142.0 L 177.5 146.6 L 177.5 151.1 L 177.5 155.7 L 177.5 160.3 L 177.5 164.8 L 177.5 169.4 L 177.5 173.9 L 177.5 178.5 L 177.5 183.0 L 177.5 187.6 L 177.5 192.2 L 177.5 196.7 L 177.5 201.3 L 177.5 205.8 L 177.5 210.4 L 177.5 214.9 L 177.5 219.5 L 177.5 224.1 L 177.5 228.6 L 177.5 233.2 L 177.5 237.7 L 177.5 242.3 L 177.5 246.8 L 177.5 251.4 L 177.5 255.9 L 177.5 260.5 L 177.5 265.1 L 177.5 269.6 L 177.5 274.2 L 177.5 278.7 L 177.5 283.3 L 177.5 287.8 L 177.5 292.4 L 177.5 297.0 L 177.5 301.5 L 177.5 306.1 L 177.5 310.6 L 177.5 315.2 L 177.5 319.7 L 177.5 324.3 L 177.5 328.9 L 177.5 333.4 L 177.5 338.0 L 177.5 342.5 L 177.5 347.1 L 177.5 351.6 L 178.3 356.2 L 184.3 360.8 L 200.0 365.3 L 212.4 369.9 L 216.5 374.4 L 215.2 379.0 L 197.3 383.5 L 181.9 388.1 L 177.9 392.7 L 177.5 397.2 L 177.5 401.8 L 177.5 406.3 L 177.5 410.9 L 177.5 415.4 L 177.5 420.0 Z" fill="#2ca02c"/>
<line class="median" x1="130.7" y1="378.4" x2="224.3" y2="378.4"/>
<rect x="154.1" y="368.9" width="46.8" height="9.5" fill="none" class="quartile"/>
<line class="quartile" x1="177.5" y1="378.5" x2="177.5" y2="368.8"/>
<line class="quartile" x1="161.9" y1="378.5" x2="193.1" y2="378.5"/>
<line class="quartile" x1="161.9" y1="368.8" x2="193.1" y2="368.8"/>
<text x="177.5" y="448" text-anchor="middle" font-size="13" font-weight="500" fill="#fff">Rust</text>
<path class="violin" d="M 372.5 420.0 L 372.5 420.0 L 372.5 415.4 L 372.5 410.9 L 372.5 406.3 L 372.5 401.8 L 372.5 397.2 L 372.5 392.7 L 372.1 388.1 L 370.1 383.5 L 363.0 379.0 L 349.0 374.4 L 335.9 369.9 L 333.5 365.3 L 340.5 360.8 L 349.9 356.2 L 358.3 351.6 L 364.7 347.1 L 369.1 342.5 L 371.4 338.0 L 372.3 333.4 L 372.5 328.9 L 372.5 324.3 L 372.5 319.7 L 372.5 315.2 L 372.5 310.6 L 372.5 306.1 L 372.5 301.5 L 372.5 297.0 L 372.5 292.4 L 372.5 287.8 L 372.5 283.3 L 372.5 278.7 L 372.5 274.2 L 372.5 269.6 L 372.5 265.1 L 372.5 260.5 L 372.5 255.9 L 372.5 251.4 L 372.5 246.8 L 372.5 242.3 L 372.5 237.7 L 372.5 233.2 L 372.5 228.6 L 372.5 224.1 L 372.5 219.5 L 372.5 214.9 L 372.5 210.4 L 372.5 205.8 L 372.5 201.3 L 372.5 196.7 L 372.5 192.2 L 372.5 187.6 L 372.5 183.0 L 372.5 178.5 L 372.5 173.9 L 372.5 169.4 L 372.5 164.8 L 372.5 160.3 L 372.5 155.7 L 372.5 151.1 L 372.5 146.6 L 372.5 142.0 L 372.5 137.5 L 372.5 132.9 L 372.5 128.4 L 372.5 123.8 L 372.5 119.2 L 372.5 114.7 L 372.5 110.1 L 372.5 105.6 L 372.5 101.0 L 372.5 96.5 L 372.5 91.9 L 372.5 87.3 L 372.5 82.8 L 372.5 78.2 L 372.5 73.7 L 372.5 69.1 L 372.5 64.6 L 372.5 60.0 L 372.5 60.0 L 372.5 64.6 L 372.5 69.1 L 372.5 73.7 L 372.5 78.2 L 372.5 82.8 L 372.5 87.3 L 372.5 91.9 L 372.5 96.5 L 372.5 101.0 L 372.5 105.6 L 372.5 110.1 L 372.5 114.7 L 372.5 119.2 L 372.5 123.8 L 372.5 128.4 L 372.5 132.9 L 372.5 137.5 L 372.5 142.0 L 372.5 146.6 L 372.5 151.1 L 372.5 155.7 L 372.5 160.3 L 372.5 164.8 L 372.5 169.4 L 372.5 173.9 L 372.5 178.5 L 372.5 183.0 L 372.5 187.6 L 372.5 192.2 L 372.5 196.7 L 372.5 201.3 L 372.5 205.8 L 372.5 210.4 L 372.5 214.9 L 372.5 219.5 L 372.5 224.1 L 372.5 228.6 L 372.5 233.2 L 372.5 237.7 L 372.5 242.3 L 372.5 246.8 L 372.5 251.4 L 372.5 255.9 L 372.5 260.5 L 372.5 265.1 L 372.5 269.6 L 372.5 274.2 L 372.5 278.7 L 372.5 283.3 L 372.5 287.8 L 372.5 292.4 L 372.5 297.0 L 372.5 301.5 L 372.5 306.1 L 372.5 310.6 L 372.5 315.2 L 372.5 319.7 L 372.5 324.3 L 372.5 328.9 L 372.7 333.4 L 373.6 338.0 L 375.9 342.5 L 380.3 347.1 L 386.7 351.6 L 395.1 356.2 L 404.5 360.8 L 411.5 365.3 L 409.1 369.9 L 396.0 374.4 L 382.0 379.0 L 374.9 383.5 L 372.9 388.1 L 372.5 392.7 L 372.5 397.2 L 372.5 401.8 L 372.5 406.3 L 372.5 410.9 L 372.5 415.4 L 372.5 420.0 Z" fill="#1f77b4"/>
<line class="median" x1="325.7" y1="368.8" x2="419.3" y2="368.8"/>
<rect x="349.1" y="359.3" width="46.8" height="9.6" fill="none" class="quartile"/>
<line class="quartile" x1="372.5" y1="368.9" x2="372.5" y2="349.7"/>
<line class="quartile" x1="356.9" y1="368.9" x2="388.1" y2="368.9"/>
<line class="quartile" x1="356.9" y1="349.7" x2="388.1" y2="349.7"/>
<text x="372.5" y="448" text-anchor="middle" font-size="13" font-weight="500" fill="#fff">Python</text>
<path class="violin" d="M 567.5 420.0 L 567.5 420.0 L 567.5 415.4 L 567.5 410.9 L 567.5 406.3 L 567.5 401.8 L 567.5 397.2 L 567.5 392.7 L 567.5 388.1 L 567.5 383.5 L 567.5 379.0 L 567.5 374.4 L 567.5 369.9 L 567.5 365.3 L 567.5 360.8 L 567.5 356.2 L 567.5 351.6 L 567.5 347.1 L 567.5 342.5 L 567.5 338.0 L 567.5 333.4 L 567.5 328.9 L 567.5 324.3 L 567.5 319.7 L 567.5 315.2 L 567.5 310.6 L 567.5 306.1 L 567.5 301.5 L 567.5 297.0 L 567.5 292.4 L 567.5 287.8 L 567.5 283.3 L 567.5 278.7 L 567.5 274.2 L 567.5 269.6 L 567.5 265.1 L 567.5 260.5 L 567.5 255.9 L 567.5 251.4 L 567.5 246.8 L 567.5 242.3 L 567.5 237.7 L 567.4 233.2 L 567.3 228.6 L 567.2 224.1 L 567.0 219.5 L 566.6 214.9 L 566.0 210.4 L 565.1 205.8 L 563.8 201.3 L 562.1 196.7 L 559.8 192.2 L 556.9 187.6 L 553.4 183.0 L 549.5 178.5 L 545.3 173.9 L 541.1 169.4 L 537.2 164.8 L 533.8 160.3 L 531.2 155.7 L 529.4 151.1 L 528.5 146.6 L 528.5 142.0 L 529.4 137.5 L 531.0 132.9 L 533.2 128.4 L 535.8 123.8 L 538.9 119.2 L 542.2 114.7 L 545.6 110.1 L 549.0 105.6 L 552.2 101.0 L 555.3 96.5 L 558.0 91.9 L 560.3 87.3 L 562.3 82.8 L 563.9 78.2 L 565.0 73.7 L 565.9 69.1 L 566.5 64.6 L 566.9 60.0 L 568.1 60.0 L 568.5 64.6 L 569.1 69.1 L 570.0 73.7 L 571.1 78.2 L 572.7 82.8 L 574.7 87.3 L 577.0 91.9 L 579.7 96.5 L 582.8 101.0 L 586.0 105.6 L 589.4 110.1 L 592.8 114.7 L 596.1 119.2 L 599.2 123.8 L 601.8 128.4 L 604.0 132.9 L 605.6 137.5 L 606.5 142.0 L 606.5 146.6 L 605.6 151.1 L 603.8 155.7 L 601.2 160.3 L 597.8 164.8 L 593.9 169.4 L 589.7 173.9 L 585.5 178.5 L 581.6 183.0 L 578.1 187.6 L 575.2 192.2 L 572.9 196.7 L 571.2 201.3 L 569.9 205.8 L 569.0 210.4 L 568.4 214.9 L 568.0 219.5 L 567.8 224.1 L 567.7 228.6 L 567.6 233.2 L 567.5 237.7 L 567.5 242.3 L 567.5 246.8 L 567.5 251.4 L 567.5 255.9 L 567.5 260.5 L 567.5 265.1 L 567.5 269.6 L 567.5 274.2 L 567.5 278.7 L 567.5 283.3 L 567.5 287.8 L 567.5 292.4 L 567.5 297.0 L 567.5 301.5 L 567.5 306.1 L 567.5 310.6 L 567.5 315.2 L 567.5 319.7 L 567.5 324.3 L 567.5 328.9 L 567.5 333.4 L 567.5 338.0 L 567.5 342.5 L 567.5 347.1 L 567.5 351.6 L 567.5 356.2 L 567.5 360.8 L 567.5 365.3 L 567.5 369.9 L 567.5 374.4 L 567.5 379.0 L 567.5 383.5 L 567.5 388.1 L 567.5 392.7 L 567.5 397.2 L 567.5 401.8 L 567.5 406.3 L 567.5 410.9 L 567.5 415.4 L 567.5 420.0 Z" fill="#ff7f0e"/>
<line class="median" x1="520.7" y1="139.7" x2="614.3" y2="139.7"/>
<rect x="544.1" y="130.1" width="46.8" height="28.7" fill="none" class="quartile"/>
<line class="quartile" x1="567.5" y1="177.9" x2="567.5" y2="101.5"/>
<line class="quartile" x1="551.9" y1="177.9" x2="583.1" y2="177.9"/>
<line class="quartile" x1="551.9" y1="101.5" x2="583.1" y2="101.5"/>
<text x="567.5" y="448" text-anchor="middle" font-size="13" font-weight="500" fill="#fff">Go</text>
<path class="violin" d="M 762.5 420.0 L 762.5 420.0 L 762.5 415.4 L 762.5 410.9 L 762.5 406.3 L 762.5 401.8 L 762.5 397.2 L 762.5 392.7 L 762.5 388.1 L 762.5 383.5 L 762.5 379.0 L 762.5 374.4 L 762.5 369.9 L 762.5 365.3 L 762.5 360.8 L 762.5 356.2 L 762.5 351.6 L 762.5 347.1 L 762.5 342.5 L 762.5 338.0 L 762.5 333.4 L 762.5 328.9 L 762.5 324.3 L 762.5 319.7 L 762.5 315.2 L 762.5 310.6 L 762.5 306.1 L 762.5 301.5 L 762.4 297.0 L 761.7 292.4 L 759.5 287.8 L 753.5 283.3 L 741.0 278.7 L 727.8 274.2 L 723.5 269.6 L 727.0 265.1 L 738.3 260.5 L 752.5 255.9 L 760.3 251.4 L 762.2 246.8 L 762.5 242.3 L 762.5 237.7 L 762.5 233.2 L 762.5 228.6 L 762.5 224.1 L 762.5 219.5 L 762.5 214.9 L 762.5 210.4 L 762.5 205.8 L 762.5 201.3 L 762.5 196.7 L 762.5 192.2 L 762.5 187.6 L 762.5 183.0 L 762.5 178.5 L 762.5 173.9 L 762.5 169.4 L 762.5 164.8 L 762.5 160.3 L 762.5 155.7 L 762.5 151.1 L 762.5 146.6 L 762.5 142.0 L 762.5 137.5 L 762.5 132.9 L 762.5 128.4 L 762.5 123.8 L 762.5 119.2 L 762.5 114.7 L 762.5 110.1 L 762.5 105.6 L 762.5 101.0 L 762.5 96.5 L 762.5 91.9 L 762.5 87.3 L 762.5 82.8 L 762.5 78.2 L 762.5 73.7 L 762.5 69.1 L 762.5 64.6 L 762.5 60.0 L 762.5 60.0 L 762.5 64.6 L 762.5 69.1 L 762.5 73.7 L 762.5 78.2 L 762.5 82.8 L 762.5 87.3 L 762.5 91.9 L 762.5 96.5 L 762.5 101.0 L 762.5 105.6 L 762.5 110.1 L 762.5 114.7 L 762.5 119.2 L 762.5 123.8 L 762.5 128.4 L 762.5 132.9 L 762.5 137.5 L 762.5 142.0 L 762.5 146.6 L 762.5 151.1 L 762.5 155.7 L 762.5 160.3 L 762.5 164.8 L 762.5 169.4 L 762.5 173.9 L 762.5 178.5 L 762.5 183.0 L 762.5 187.6 L 762.5 192.2 L 762.5 196.7 L 762.5 201.3 L 762.5 205.8 L 762.5 210.4 L 762.5 214.9 L 762.5 219.5 L 762.5 224.1 L 762.5 228.6 L 762.5 233.2 L 762.5 237.7 L 762.5 242.3 L 762.8 246.8 L 764.7 251.4 L 772.5 255.9 L 786.7 260.5 L 798.0 265.1 L 801.5 269.6 L 797.2 274.2 L 784.0 278.7 L 771.5 283.3 L 765.5 287.8 L 763.3 292.4 L 762.6 297.0 L 762.5 301.5 L 762.5 306.1 L 762.5 310.6 L 762.5 315.2 L 762.5 319.7 L 762.5 324.3 L 762.5 328.9 L 762.5 333.4 L 762.5 338.0 L 762.5 342.5 L 762.5 347.1 L 762.5 351.6 L 762.5 356.2 L 762.5 360.8 L 762.5 365.3 L 762.5 369.9 L 762.5 374.4 L 762.5 379.0 L 762.5 383.5 L 762.5 388.1 L 762.5 392.7 L 762.5 397.2 L 762.5 401.8 L 762.5 406.3 L 762.5 410.9 L 762.5 415.4 L 762.5 420.0 Z" fill="#d62728"/>
<line class="median" x1="715.7" y1="273.4" x2="809.3" y2="273.4"/>
<rect x="739.1" y="263.8" width="46.8" height="9.5" fill="none" class="quartile"/>
<line class="quartile" x1="762.5" y1="282.9" x2="762.5" y2="263.8"/>
<line class="quartile" x1="746.9" y1="282.9" x2="778.1" y2="282.9"/>
<line class="quartile" x1="746.9" y1="263.8" x2="778.1" y2="263.8"/>
<text x="762.5" y="448" text-anchor="middle" font-size="13" font-weight="500" fill="#fff">Java</text>
<rect x="715" y="65" width="130" height="78" fill="#2a2a2a" opacity="0.9" rx="3"/>
<rect x="720" y="61" width="10" height="10" fill="#2ca02c"/>
<text x="736" y="70" font-size="12" fill="#fff">Rust</text>
<rect x="720" y="79" width="10" height="10" fill="#1f77b4"/>
<text x="736" y="88" font-size="12" fill="#fff">Python</text>
<rect x="720" y="97" width="10" height="10" fill="#ff7f0e"/>
<text x="736" y="106" font-size="12" fill="#fff">Go</text>
<rect x="720" y="115" width="10" height="10" fill="#d62728"/>
<text x="736" y="124" font-size="12" fill="#fff">Java</text>
</svg>